<?xml version="1.0" standalone="no"?>
<!DOCTYPE svg PUBLIC "-//W3C//DTD SVG 20010904//EN"
 "http://www.w3.org/TR/2001/REC-SVG-20010904/DTD/svg10.dtd">
<svg version="1.0" xmlns="http://www.w3.org/2000/svg"
 width="1259.000000pt" height="1259.000000pt" viewBox="0 0 1259.000000 1259.000000"
 preserveAspectRatio="xMidYMid meet">
<metadata>
Created by potrace 1.11, written by Peter Selinger 2001-2013
</metadata>
<g transform="translate(0.000000,1259.000000) scale(0.100000,-0.100000)"
fill="#000000" stroke="none">
<path d="M5908 12585 c-2 -1 -56 -6 -121 -9 -66 -4 -133 -9 -150 -11 -18 -2
-68 -6 -112 -10 -44 -3 -107 -10 -140 -15 -33 -5 -89 -12 -125 -15 -36 -4 -67
-8 -70 -10 -3 -2 -29 -6 -59 -10 -30 -4 -63 -9 -75 -11 -12 -2 -37 -7 -56 -10
-102 -16 -390 -80 -537 -119 -807 -215 -1527 -582 -2158 -1100 -339 -279 -657
-610 -933 -970 -51 -66 -97 -126 -103 -133 -21 -26 -261 -387 -270 -407 -5
-11 -27 -49 -49 -84 -154 -243 -362 -672 -492 -1010 -47 -122 -139 -403 -134
-408 1 -2 16 27 31 64 59 141 246 492 267 501 4 2 8 8 8 14 0 19 232 346 324
457 187 224 419 460 586 597 19 16 40 34 45 40 6 6 51 42 100 80 50 38 92 71
95 74 22 23 316 217 439 290 107 62 380 204 491 253 280 126 730 266 1000 312
19 3 42 8 50 10 8 2 38 6 65 10 28 3 68 10 90 15 22 5 72 11 111 15 39 3 82 8
95 10 132 26 842 26 977 0 9 -1 46 -6 82 -10 36 -3 72 -8 80 -10 8 -3 35 -7
60 -10 107 -13 409 -81 564 -126 1123 -329 2037 -1077 2597 -2124 105 -197
174 -351 274 -610 5 -11 9 -24 11 -30 2 -5 19 -57 39 -115 35 -104 111 -369
121 -423 2 -16 13 -66 23 -110 19 -82 46 -232 57 -317 3 -25 7 -56 10 -70 2
-14 7 -54 10 -90 3 -36 8 -76 10 -90 22 -132 22 -683 0 -855 -2 -16 -7 -59
-11 -95 -3 -36 -8 -76 -10 -90 -5 -34 -37 -222 -40 -235 -1 -5 -5 -28 -9 -50
-5 -22 -17 -76 -28 -120 -11 -44 -22 -89 -24 -99 -2 -10 -8 -33 -14 -51 -6
-18 -12 -41 -14 -51 -9 -44 -82 -248 -133 -374 -161 -395 -393 -754 -670
-1037 -29 -29 -49 -53 -45 -53 4 0 45 15 92 34 550 218 1117 578 1552 986 225
210 381 383 551 608 75 98 267 385 267 398 0 3 8 18 19 32 36 51 169 317 229
457 83 194 161 423 208 605 22 84 72 310 78 354 4 21 8 48 11 60 2 12 7 39 10
61 3 22 7 54 10 70 2 17 7 53 11 80 3 28 7 61 9 75 26 207 26 742 0 935 -2 17
-7 57 -10 90 -3 33 -10 85 -15 115 -5 30 -11 71 -14 90 -3 19 -13 73 -22 120
-9 47 -18 96 -20 109 -14 71 -87 343 -124 456 -99 305 -263 671 -406 905 -22
36 -47 76 -55 90 -31 53 -166 249 -223 325 -187 247 -444 519 -646 685 -30 25
-57 47 -60 51 -13 15 -225 172 -305 226 -193 130 -276 179 -490 288 -327 166
-620 274 -1001 369 -156 39 -226 54 -334 72 -14 3 -36 7 -50 9 -68 14 -263 42
-345 50 -33 3 -82 8 -110 11 -27 3 -77 8 -110 11 -68 5 -832 13 -837 8z"/>
<path d="M10529 10878 c83 -136 248 -454 325 -625 24 -54 56 -124 70 -155 14
-31 26 -59 26 -62 0 -4 9 -25 20 -49 30 -65 127 -327 175 -472 101 -301 205
-731 230 -945 3 -19 6 -44 9 -55 2 -11 7 -47 10 -80 4 -33 9 -71 11 -85 5 -35
17 -173 21 -250 5 -94 5 -480 0 -510 -2 -14 -7 -68 -11 -120 -4 -52 -9 -104
-11 -115 -2 -11 -6 -42 -9 -70 -14 -114 -67 -382 -84 -427 -5 -13 -9 -26 -10
-31 -11 -87 -123 -409 -201 -582 -35 -78 -144 -294 -184 -363 -20 -35 -36 -65
-36 -67 0 -10 -264 -427 -291 -459 -5 -6 -53 -70 -107 -142 -95 -129 -120
-160 -251 -314 -80 -93 -129 -145 -256 -274 -585 -589 -1267 -1014 -2025
-1263 -101 -32 -382 -108 -445 -119 -16 -2 -61 -11 -100 -19 -70 -14 -96 -18
-190 -30 -27 -4 -60 -8 -73 -10 -130 -20 -667 -28 -802 -12 -36 4 -81 10 -100
12 -19 3 -55 7 -79 10 -24 3 -63 10 -85 15 -23 5 -61 12 -86 15 -123 18 -426
106 -600 175 l-55 22 30 -34 c95 -107 430 -429 543 -523 133 -110 371 -286
453 -336 24 -15 76 -47 114 -71 330 -206 830 -419 1115 -474 14 -3 41 -9 60
-14 57 -15 230 -47 295 -55 32 -4 68 -9 78 -11 143 -27 1127 -27 1362 1 22 3
67 7 100 10 108 10 287 36 405 60 184 36 337 81 500 146 157 62 429 211 515
281 6 5 42 32 80 61 39 28 72 54 75 57 3 3 51 45 107 93 174 150 570 576 677
727 92 131 207 342 280 512 71 168 197 548 221 666 2 9 12 53 23 97 20 78 56
250 65 310 3 17 8 46 11 65 21 121 34 210 42 275 3 33 8 69 10 80 2 11 6 54
10 95 3 41 7 93 10 115 26 257 26 1046 0 1216 -3 13 -7 58 -10 99 -3 41 -8 84
-10 95 -2 12 -7 52 -11 90 -3 38 -8 72 -10 75 -2 3 -6 36 -10 75 -3 38 -8 72
-10 75 -2 4 -7 29 -10 56 -7 52 -74 385 -100 494 -9 36 -18 76 -21 89 -28 131
-137 472 -221 695 -216 577 -556 1173 -924 1621 -166 201 -571 624 -656 683
l-32 23 38 -63z"/>
<path d="M3358 10514 c-2 -2 -31 -6 -64 -9 -34 -3 -69 -7 -80 -9 -10 -2 -39
-7 -64 -11 -47 -8 -60 -10 -125 -24 -99 -22 -315 -88 -380 -117 -16 -7 -59
-25 -95 -39 -95 -39 -270 -130 -385 -199 -932 -561 -1633 -1549 -1945 -2741
-37 -140 -92 -398 -105 -490 -3 -22 -10 -62 -15 -90 -9 -48 -11 -69 -26 -195
-23 -211 -29 -332 -29 -625 0 -261 8 -487 19 -555 3 -14 7 -50 10 -80 9 -96
42 -318 61 -415 29 -145 41 -202 80 -353 138 -550 353 -1063 651 -1559 74
-124 271 -420 294 -443 3 -3 39 -50 80 -105 154 -205 328 -403 545 -620 258
-259 460 -434 758 -657 135 -100 509 -358 521 -358 2 0 62 -36 135 -80 72 -44
133 -80 135 -80 3 0 44 -23 93 -51 93 -54 195 -108 228 -122 11 -4 -12 25 -51
65 -329 339 -578 695 -794 1133 -141 287 -259 603 -315 840 -4 17 -9 37 -11
45 -3 16 -44 204 -49 230 -10 55 -33 212 -40 282 -3 29 -8 69 -10 89 -23 205
-23 700 0 884 2 17 6 55 9 85 13 132 41 300 72 435 3 11 7 31 10 45 3 14 7 33
10 42 3 9 7 25 9 35 8 40 85 283 113 360 77 204 200 462 301 626 44 73 150
234 168 257 6 8 42 56 79 105 168 225 360 433 615 665 742 677 1172 1335 1299
1990 59 307 39 621 -57 878 -41 110 -113 252 -149 293 -8 8 -14 20 -14 26 0 6
-3 13 -8 15 -4 2 -23 23 -42 48 -38 49 -145 158 -201 203 -200 166 -499 295
-774 333 -22 3 -51 8 -65 11 -28 6 -397 12 -402 7z"/>
<path d="M4316 6684 c-211 -168 -489 -432 -631 -599 -33 -38 -62 -72 -65 -75
-34 -34 -197 -252 -277 -371 -173 -255 -335 -573 -435 -849 -19 -55 -76 -231
-83 -260 -2 -8 -9 -31 -14 -50 -13 -42 -57 -240 -65 -290 -3 -19 -8 -46 -11
-59 -2 -14 -7 -45 -10 -70 -3 -25 -7 -55 -9 -66 -4 -21 -15 -127 -22 -210 -12
-143 -6 -518 11 -655 3 -19 7 -57 10 -85 6 -52 41 -286 49 -320 40 -186 76
-332 116 -460 11 -38 23 -77 25 -86 9 -43 112 -302 156 -397 163 -345 394
-656 670 -901 124 -110 133 -118 254 -204 185 -133 384 -245 600 -337 55 -23
114 -48 130 -55 30 -13 242 -85 260 -89 6 -1 36 -10 68 -19 139 -41 298 -79
407 -96 36 -6 74 -13 86 -15 12 -2 45 -7 74 -11 29 -4 60 -8 69 -10 9 -1 45
-6 81 -10 36 -4 77 -8 93 -10 227 -28 839 -28 1092 0 22 2 69 7 105 10 36 3
76 8 90 10 28 4 94 14 137 20 15 2 60 9 98 15 39 7 84 14 100 16 17 3 73 14
125 25 52 12 106 23 120 25 49 9 276 65 345 85 486 142 781 257 1170 454 536
272 966 581 1326 952 114 117 291 324 284 331 -1 2 -22 -6 -44 -18 -102 -52
-463 -171 -594 -195 -12 -3 -49 -11 -82 -19 -33 -9 -76 -18 -95 -21 -19 -3
-53 -10 -75 -15 -22 -5 -60 -11 -85 -15 -25 -3 -52 -8 -60 -10 -8 -2 -39 -7
-69 -10 -30 -4 -61 -8 -70 -10 -9 -1 -43 -6 -76 -9 -33 -4 -71 -9 -85 -11 -14
-2 -56 -6 -95 -10 -38 -3 -88 -8 -110 -10 -301 -34 -1127 -39 -1369 -9 -38 5
-219 34 -241 39 -5 1 -28 5 -50 9 -48 10 -268 63 -310 76 -589 181 -1041 395
-1440 684 -374 270 -820 787 -1117 1296 -231 395 -412 883 -483 1305 -8 50
-17 100 -19 112 -3 12 -8 53 -11 90 -4 37 -8 75 -10 83 -6 24 -18 267 -18 370
0 89 10 301 18 363 2 15 6 55 10 90 4 34 9 71 11 82 2 11 6 34 8 50 7 50 16
95 37 194 11 51 22 101 24 111 2 9 14 53 28 98 14 45 22 82 19 82 -4 -1 -38
-26 -76 -56z"/>
</g>
</svg>
