<?xml version="1.0" encoding="UTF-8"?>
<svg width="23px" height="15px" viewBox="0 0 23 15" version="1.1" xmlns="http://www.w3.org/2000/svg" xmlns:xlink="http://www.w3.org/1999/xlink">
    <!-- Generator: Sketch 42 (36781) - http://www.bohemiancoding.com/sketch -->
    <title>Fill 1</title>
    <desc>Created with Sketch.</desc>
    <defs></defs>
    <g id="Page-1" stroke="none" stroke-width="1" fill="none" fill-rule="evenodd">
        <g id="Artboard-Copy" transform="translate(-661.000000, -2160.000000)" fill="#FFFFFF">
            <g id="Group-4" transform="translate(-7.000000, 2141.000000)">
                <g id="Group" transform="translate(523.000000, 19.000000)">
                    <path d="M167.728693,12.1420455 L165.36044,14.4964489 C165.179332,14.6772017 164.965554,14.7674006 164.71804,14.7674006 C164.470881,14.7674006 164.257102,14.6772017 164.076349,14.4964489 L156.5,6.92009943 L148.923651,14.4964489 C148.742898,14.6772017 148.529119,14.7674006 148.281605,14.7674006 C148.034091,14.7674006 147.819957,14.6772017 147.63956,14.4964489 L145.271307,12.1420455 C145.090199,11.9616477 145,11.7450284 145,11.4928977 C145,11.2411222 145.090199,11.0245028 145.271307,10.84375 L155.857955,0.271306818 C156.038352,0.0905539773 156.252486,0 156.5,0 C156.747159,0 156.961293,0.0905539773 157.142045,0.271306818 L167.728693,10.84375 C167.909446,11.0245028 168,11.2411222 168,11.4928977 C168,11.7450284 167.909446,11.9616477 167.728693,12.1420455" id="Fill-1"></path>
                </g>
            </g>
        </g>
    </g>
</svg>