<svg id="73ecd829-c670-4c82-ba01-64a9f44dbc08" data-name="Layer 1" xmlns="http://www.w3.org/2000/svg" viewBox="0 0 110.3 72.4"><defs><style>.be826bd6-63fd-4158-b89b-64288607a672{fill:#fff;}</style></defs><title>email_icon</title><path class="be826bd6-63fd-4158-b89b-64288607a672" d="M352.2,359.3H259.5a8.81,8.81,0,0,0-8.8,8.8v54.8a8.81,8.81,0,0,0,8.8,8.8h92.7a8.81,8.81,0,0,0,8.8-8.8V368.1A8.75,8.75,0,0,0,352.2,359.3Zm4,68.5a2.27,2.27,0,0,1-1.6.6,2,2,0,0,1-1.5-.6l-29.9-29.9a2.09,2.09,0,0,1-.4-0.6l-9.3,8.3a10.63,10.63,0,0,1-14.8,0l-9.7-8.7a3.13,3.13,0,0,1-.5,1l-29.9,29.9a2.2,2.2,0,0,1-1.5.6,2.45,2.45,0,0,1-1.6-.6,2.12,2.12,0,0,1,0-3.1l29.9-29.9a2.18,2.18,0,0,1,.8-0.5L255.6,367a2.2,2.2,0,0,1,2.9-3.3l43.3,38.6a6.2,6.2,0,0,0,4.4,1.8,6.38,6.38,0,0,0,4.4-1.8l42.7-38.1h0a2.2,2.2,0,1,1,2.9,3.3l-30.2,27a1.38,1.38,0,0,1,.4.3l29.9,29.9A2.21,2.21,0,0,1,356.2,427.8Z" transform="translate(-250.7 -359.3)"/></svg>