<?xml version="1.0" encoding="UTF-8" standalone="no"?>
<svg width="41px" height="42px" viewBox="0 0 41 42" version="1.1" xmlns="http://www.w3.org/2000/svg" xmlns:xlink="http://www.w3.org/1999/xlink">
    <!-- Generator: Sketch 40.3 (33839) - http://www.bohemiancoding.com/sketch -->
    <title>Page 1</title>
    <desc>Created with Sketch.</desc>
    <defs></defs>
    <g id="Symbols" stroke="none" stroke-width="1" fill="none" fill-rule="evenodd">
        <g id="Footer-v2" transform="translate(-427.000000, -78.000000)" fill="#63B1E5">
            <path d="M447.5,119.09589 C436.178533,119.09589 427,109.89589 427,98.5479452 C427,87.1993151 436.178533,78 447.5,78 C458.821467,78 468,87.1993151 468,98.5479452 C468,109.89589 458.821467,119.09589 447.5,119.09589 L447.5,119.09589 Z M444.606083,109.726027 L449.214483,109.726027 L449.214483,98.5465753 L452.2888,98.5465753 L452.696067,94.6945205 L449.214483,94.6945205 L449.219267,92.7657534 C449.219267,91.7616438 449.314933,91.2226027 450.752667,91.2226027 L452.6742,91.2226027 L452.6742,87.369863 L449.5992,87.369863 C445.905783,87.369863 444.606083,89.2390411 444.606083,92.3815068 L444.606083,94.6945205 L442.303933,94.6945205 L442.303933,98.5472603 L444.606083,98.5472603 L444.606083,109.726027 Z" id="Page-1"></path>
        </g>
    </g>
</svg>