<?xml version="1.0" encoding="utf-8"?>
<!-- Generator: Adobe Illustrator 20.1.0, SVG Export Plug-In . SVG Version: 6.00 Build 0)  -->
<svg version="1.1" id="Layer_1" xmlns="http://www.w3.org/2000/svg" xmlns:xlink="http://www.w3.org/1999/xlink" x="0px" y="0px"
	 viewBox="0 0 360 108" style="enable-background:new 0 0 360 108;" xml:space="preserve">
<metadata><?xpacket begin="﻿" id="W5M0MpCehiHzreSzNTczkc9d"?>
<x:xmpmeta xmlns:x="adobe:ns:meta/" x:xmptk="Adobe XMP Core 5.6-c132 79.159284, 2016/04/19-13:13:40        ">
   <rdf:RDF xmlns:rdf="http://www.w3.org/1999/02/22-rdf-syntax-ns#">
      <rdf:Description rdf:about=""
            xmlns:ExtensisFontSense="http://www.extensis.com/meta/FontSense/">
         <ExtensisFontSense:slug>
            <rdf:Bag>
               <rdf:li>
                  <rdf:Description>
                     <ExtensisFontSense:Family>Avenir</ExtensisFontSense:Family>
                     <ExtensisFontSense:Version>8.0</ExtensisFontSense:Version>
                     <ExtensisFontSense:OutlineFileSize>0</ExtensisFontSense:OutlineFileSize>
                     <ExtensisFontSense:KerningChecksum>0</ExtensisFontSense:KerningChecksum>
                     <ExtensisFontSense:Foundry>Linotype AG</ExtensisFontSense:Foundry>
                     <ExtensisFontSense:FontKind>TrueType Collection</ExtensisFontSense:FontKind>
                     <ExtensisFontSense:Checksum>1047653871</ExtensisFontSense:Checksum>
                     <ExtensisFontSense:PostScriptName>Avenir-MediumOblique</ExtensisFontSense:PostScriptName>
                     <ExtensisFontSense:FontSense_1.2_Checksum>1047653871</ExtensisFontSense:FontSense_1.2_Checksum>
                  </rdf:Description>
               </rdf:li>
            </rdf:Bag>
         </ExtensisFontSense:slug>
      </rdf:Description>
   </rdf:RDF>
</x:xmpmeta>
                                                                                                    
                                                                                                    
                                                                                                    
                                                                                                    
                                                                                                    
                                                                                                    
                                                                                                    
                                                                                                    
                                                                                                    
                                                                                                    
                                                                                                    
                                                                                                    
                                                                                                    
                                                                                                    
                                                                                                    
                                                                                                    
                                                                                                    
                                                                                                    
                                                                                                    
                                                                                                    
                           
<?xpacket end="w"?></metadata>
<style type="text/css">
	.st0{fill:#0047BA;}
	.st1{fill:#003A70;}
	.st2{fill:#40B4E5;}
	.st3{fill:#67B2E8;}
	.st4{fill:#808285;}
	.st5{font-family:'Avenir-MediumOblique';}
	.st6{font-size:14.2998px;}
</style>
<g>
	<path class="st0" d="M51.4,76.4c-3.4-0.1-9-2.1-12-5.1c-7.9-8-6.2-16.2-5.4-18.8c-2.6,1.9-10.9,9.2-6.8,21.4
		c1.8,5.5,6.4,8.9,13,9.7c8.9,1.1,19.1-2.8,23.8-9C62.3,75.4,58.5,76.6,51.4,76.4z"/>
	<path class="st1" d="M24.7,68.8c-0.4-5.5,0.8-11.1,6.5-16.2c13.8-12.4,1.7-23.4-9.5-14.4s-12.4,32.4,9,43.3
		C30.7,81.5,25.2,76.7,24.7,68.8z"/>
	<path class="st2" d="M26.1,34.4c4.7-2.1,10.7-2.7,16.5-0.5c13.9,5.4,16.8,24.1,8.3,32.4c0,0,12.5-4.1,14.1-17.4
		c1.3-10.9-5.9-23.7-22.3-23.7c-22.7,0-27.7,20.3-27.7,20.3S17.5,38.3,26.1,34.4z"/>
	<path class="st3" d="M62.3,32.9c2.2,3.7,7,13.5,2.5,22.5c-3.1,6.1-8.2,10.7-14.2,12.7c-4.2,1.4-8.5,1.3-12.2-0.2
		c1.9,2.1,6.9,7,14,7.1c8.5,0.1,11.3-1,15.8-6.4c2.3-2.8,4.2-9.5,3.4-17.2C71.1,46.1,68.9,38.7,62.3,32.9z"/>
	<text transform="matrix(1 0 0 1 82.584 78.6953)" class="st4 st5 st6">an innovation of water.org</text>
	<path class="st1" d="M82.6,35.4h4.1l3.1,23h0.1l10-23h4.5l3.6,23h0.1l9.6-23h4.1l-12.4,28.8h-4.1l-3.7-23.5h-0.1L91.1,64.2H87
		L82.6,35.4z"/>
	<g>
		<path class="st1" d="M188,53.5l4.7,10.7h4.1l-5.3-11.1c3.7-0.4,6.4-3.3,6.9-6.4c0.4-3-0.6-6.8-6.8-6.8h-8.5l-3.4,24.2h3.3l1.3-9.1
			l0.2-1.6l0.4-2.9l0.1-0.4l1-7.4h4.3c2.6,0,5.1,0.6,4.7,3.9c0,0-0.2,4.5-7.7,4.5L188,53.5z"/>
		<path class="st1" d="M129.2,40h3l7,24.2h-3.8l-1.6-6h-11.5l-3.2,6h-3.8L129.2,40z M132.9,55.4l-3-11.1h-0.1l-6.1,11.1H132.9z"/>
		<path class="st1" d="M147.1,43.1h-7.8l0.4-3.1h18.9l-0.4,3.1h-7.8l-3,21.1h-3.3L147.1,43.1z"/>
		<path class="st1" d="M162.2,40h15.6l-0.4,3.1H165l-1,7.2h11.5l-0.4,3.1h-11.5l-1.1,7.8h13l-0.4,3.1h-16.3L162.2,40z"/>
	</g>
	<path class="st2" d="M205.8,35.4h18.6l-0.5,3.7h-14.7l-1.2,8.6h13.7l-0.5,3.7h-13.7l-1.3,9.2h15.4l-0.5,3.7h-19.3L205.8,35.4z"/>
	<path class="st2" d="M261.9,39.5l-2.1,15.2c-0.4,3.1,0.5,7.1,5.2,7.1c4.7,0,6.8-4,7.2-7.1l2.1-15.2h3.4l-2.2,15.7
		c-0.8,5.8-5.5,9.7-11,9.7c-5.4,0-9.1-4-8.2-9.7l2.2-15.7H261.9z"/>
	<path class="st2" d="M283.7,39.5h3.4l-3.5,24.8h-3.4L283.7,39.5z"/>
	<path class="st2" d="M298.2,42.6h-8l0.4-3.2H310l-0.4,3.2h-8l-3,21.7h-3.4L298.2,42.6z"/>
	<path class="st2" d="M319.6,53.7l-7.4-14.2h4.3l5.2,10.9l8.5-10.9h4.1l-11.4,14.2l-1.5,10.6h-3.4L319.6,53.7z"/>
	<path class="st2" d="M245.8,61.9L245.8,61.9c-1.7,0-6-0.1-8.3-0.3c-0.1,0-0.2,0-0.2,0c-0.6-0.1-1-0.1-1.1-0.2l0,0
		c-0.6-0.1-1.1-0.3-1.6-0.5c-1.2-0.5-2.1-1.3-2.9-2.2c-0.8-0.9-1.4-2-1.8-3.3c-0.4-1.2-0.6-2.6-0.6-4c0-1.3,0.3-2.6,0.9-3.8
		c0.5-1.2,1.2-2.2,2.1-3.1c0.9-0.9,1.9-1.6,3.1-2.1c1.2-0.5,2.5-0.8,3.8-0.8c1.4,0,2.7,0.3,3.8,0.8c1.2,0.5,2.1,1.2,3,2.1
		c0.8,0.9,1.5,1.9,1.9,3.1c0.4,1.2,0.6,2.5,0.6,3.9c0,1.4-0.3,2.8-0.8,4c-0.5,1.2-1.2,2.3-2.1,3.2c-0.5,0.5-1,0.9-1.6,1.3
		c-0.1,0.1-0.1,0.3,0.1,0.3l4.2,0c0,0,0,0,0,0c0.9-0.8,1.6-1.7,2.2-2.7c0.5-0.9,0.9-1.9,1.2-3c0.3-1.1,0.5-2.1,0.5-3.2
		c0.1-1.9-0.2-3.6-0.9-5.2c-0.6-1.6-1.5-2.9-2.7-4.1c-1.2-1.2-2.5-2.1-4.1-2.7c-1.6-0.7-3.3-1-5.1-1c-1.9,0-3.7,0.3-5.3,1
		c-1.6,0.7-3.1,1.6-4.4,2.8c-1.3,1.2-2.2,2.6-3,4.2c-0.7,1.6-1.1,3.4-1.2,5.3c-0.1,1.9,0.2,3.7,0.9,5.3c0.7,1.6,1.6,3,2.8,4.2
		c1.2,1.2,2.6,2.1,4.2,2.8c1.6,0.7,3.3,1,5.2,1h15l0.1-3.1H245.8z"/>
	<g>
		<path class="st4" d="M336.4,43c0.1,0.2,0.2,0.3,0.4,0.3c0.2,0.1,0.3,0.1,0.5,0.1c0.1,0,0.2,0,0.3,0s0.2-0.1,0.3-0.1
			c0.1-0.1,0.1-0.1,0.2-0.2c0.1-0.1,0.1-0.2,0.1-0.3c0-0.2-0.1-0.3-0.2-0.4c-0.1-0.1-0.2-0.2-0.4-0.2s-0.3-0.1-0.5-0.2
			s-0.3-0.1-0.5-0.2s-0.3-0.2-0.4-0.4c-0.1-0.2-0.2-0.4-0.2-0.7c0-0.1,0-0.3,0.1-0.4c0.1-0.1,0.1-0.3,0.3-0.4
			c0.1-0.1,0.3-0.2,0.4-0.3c0.2-0.1,0.4-0.1,0.7-0.1c0.2,0,0.5,0,0.7,0.1c0.2,0.1,0.4,0.2,0.6,0.4l-0.5,0.4
			c-0.1-0.1-0.2-0.2-0.3-0.3c-0.1-0.1-0.3-0.1-0.4-0.1c-0.2,0-0.3,0-0.4,0.1c-0.1,0-0.2,0.1-0.3,0.2c-0.1,0.1-0.1,0.1-0.1,0.2
			c0,0.1,0,0.1,0,0.2c0,0.2,0.1,0.3,0.2,0.4c0.1,0.1,0.2,0.2,0.4,0.2c0.2,0.1,0.3,0.1,0.5,0.2c0.2,0,0.3,0.1,0.5,0.2
			c0.2,0.1,0.3,0.2,0.4,0.3c0.1,0.1,0.2,0.3,0.2,0.6c0,0.2,0,0.4-0.1,0.6c-0.1,0.2-0.2,0.3-0.3,0.4c-0.1,0.1-0.3,0.2-0.5,0.3
			c-0.2,0.1-0.4,0.1-0.6,0.1c-0.3,0-0.5,0-0.8-0.1c-0.2-0.1-0.4-0.2-0.6-0.4L336.4,43z"/>
		<path class="st4" d="M339.5,39.7h0.9l1.3,3.2h0l1.3-3.2h0.9v4.2h-0.6v-3.5h0l-1.4,3.5h-0.4l-1.4-3.5h0v3.5h-0.6V39.7z"/>
	</g>
</g>
</svg>
