<svg id="ffbfa1c7-74e8-4052-8ef3-841948d6f15b" data-name="Layer 1" xmlns="http://www.w3.org/2000/svg" viewBox="0 0 330.18 58.49"><defs><style>.\39 7865a44-2a1c-4a9b-a13d-ea2280bb142e{fill:#fff;}.\30 fdef4f3-b07c-41c8-ab2f-7afe4a1a992e{fill:#8bc1ed;}.\34 55bade4-7708-4813-ab91-58db34b2dfaf{fill:#67b2e8;}.e528c63d-a316-46bb-8961-63a33d9da8f8{fill:#c8e0f6;}.f52a18cd-1492-4ba8-bc35-25e13c32dbe6{fill:#aad0f1;}</style></defs><title>logo-reversed</title><path class="97865a44-2a1c-4a9b-a13d-ea2280bb142e" d="M83.85,71.83a4.29,4.29,0,0,1,1.37-.75,4.62,4.62,0,0,1,1.47-.25,3.72,3.72,0,0,1,1.26.19,2.09,2.09,0,0,1,.82.5,1.58,1.58,0,0,1,.4.72,2.32,2.32,0,0,1,0,.85l-0.49,3.46q-0.06.36-.09,0.66c0,0.2,0,.39,0,0.57H87.46c0-.17,0-0.34,0-0.51s0-.34.06-0.51h0a3.08,3.08,0,0,1-1.15.93,3.44,3.44,0,0,1-1.39.27,2.9,2.9,0,0,1-.88-0.13,1.87,1.87,0,0,1-.69-0.39A1.54,1.54,0,0,1,83,76.79a1.82,1.82,0,0,1-.06-0.88,2.16,2.16,0,0,1,.44-1.1,2.74,2.74,0,0,1,.91-0.72,4.44,4.44,0,0,1,1.24-.4A8.58,8.58,0,0,1,87,73.57h0.94l0-.29a1.25,1.25,0,0,0,0-.51,1.17,1.17,0,0,0-.24-0.46A1.19,1.19,0,0,0,87.26,72a1.79,1.79,0,0,0-.7-0.12,2.81,2.81,0,0,0-.67.07,3,3,0,0,0-.53.18,2.91,2.91,0,0,0-.44.25l-0.41.27Zm3.26,2.69a9.34,9.34,0,0,0-.95.05,4.07,4.07,0,0,0-.9.19,2,2,0,0,0-.7.4,1.06,1.06,0,0,0-.34.66,0.81,0.81,0,0,0,.27.84,1.76,1.76,0,0,0,1,.26,2.21,2.21,0,0,0,.93-0.18,2.1,2.1,0,0,0,.67-0.46,2.13,2.13,0,0,0,.42-0.64,2.56,2.56,0,0,0,.19-0.69l0.07-.43H87.11Z" transform="translate(-13.22 -24.26)"/><path class="97865a44-2a1c-4a9b-a13d-ea2280bb142e" d="M91.36,71h1.29L92.5,72h0a2.4,2.4,0,0,1,1-.88,3,3,0,0,1,1.43-.34,2.76,2.76,0,0,1,.92.15,1.78,1.78,0,0,1,.72.46,1.85,1.85,0,0,1,.42.81,2.93,2.93,0,0,1,0,1.17l-0.6,4.36H95.13l0.56-4a2.35,2.35,0,0,0,0-.81,1.26,1.26,0,0,0-.26-0.54,1,1,0,0,0-.45-0.3A1.74,1.74,0,0,0,94.39,72a2.28,2.28,0,0,0-.77.13,1.82,1.82,0,0,0-.66.41,2.31,2.31,0,0,0-.49.71,3.64,3.64,0,0,0-.29,1L91.7,77.77H90.42Z" transform="translate(-13.22 -24.26)"/><path class="97865a44-2a1c-4a9b-a13d-ea2280bb142e" d="M103.39,71h1.29l-0.94,6.78h-1.29Zm0-2.43a1.08,1.08,0,0,1,.37-0.67,1,1,0,0,1,.7-0.28,0.8,0.8,0,0,1,.63.28,0.79,0.79,0,0,1,.19.67,1.09,1.09,0,0,1-.37.67,1,1,0,0,1-.7.28A0.81,0.81,0,0,1,103.43,68.57Z" transform="translate(-13.22 -24.26)"/><path class="97865a44-2a1c-4a9b-a13d-ea2280bb142e" d="M106.72,71H108l-0.14,1h0a2.4,2.4,0,0,1,1-.88,3,3,0,0,1,1.43-.34,2.76,2.76,0,0,1,.92.15,1.78,1.78,0,0,1,.72.46,1.85,1.85,0,0,1,.42.81,2.93,2.93,0,0,1,0,1.17l-0.6,4.36h-1.29l0.56-4a2.35,2.35,0,0,0,0-.81,1.26,1.26,0,0,0-.26-0.54,1,1,0,0,0-.45-0.3,1.74,1.74,0,0,0-.57-0.09,2.28,2.28,0,0,0-.77.13,1.82,1.82,0,0,0-.66.41,2.31,2.31,0,0,0-.49.71,3.64,3.64,0,0,0-.29,1l-0.49,3.49h-1.29Z" transform="translate(-13.22 -24.26)"/><path class="97865a44-2a1c-4a9b-a13d-ea2280bb142e" d="M114.67,71H116l-0.14,1h0a2.4,2.4,0,0,1,1-.88,3,3,0,0,1,1.43-.34,2.76,2.76,0,0,1,.92.15,1.78,1.78,0,0,1,.72.46,1.85,1.85,0,0,1,.42.81,2.93,2.93,0,0,1,0,1.17l-0.6,4.36h-1.29l0.56-4a2.35,2.35,0,0,0,0-.81,1.26,1.26,0,0,0-.26-0.54,1,1,0,0,0-.45-0.3A1.74,1.74,0,0,0,117.7,72a2.28,2.28,0,0,0-.77.13,1.82,1.82,0,0,0-.66.41,2.31,2.31,0,0,0-.49.71,3.64,3.64,0,0,0-.29,1L115,77.77h-1.29Z" transform="translate(-13.22 -24.26)"/><path class="97865a44-2a1c-4a9b-a13d-ea2280bb142e" d="M121.82,74.39a3.75,3.75,0,0,1,.47-1.39,4.4,4.4,0,0,1,2.18-1.89,3.86,3.86,0,0,1,1.45-.28,3.29,3.29,0,0,1,1.37.28,3,3,0,0,1,1,.76,3,3,0,0,1,.61,1.13,3.35,3.35,0,0,1,.09,1.39,4.17,4.17,0,0,1-1.4,2.52,4.45,4.45,0,0,1-1.25.76,3.84,3.84,0,0,1-1.45.28,3.33,3.33,0,0,1-1.38-.28,2.93,2.93,0,0,1-1-.76,3,3,0,0,1-.61-1.13A3.16,3.16,0,0,1,121.82,74.39Zm1.37,0a2.72,2.72,0,0,0,0,1,1.77,1.77,0,0,0,.34.74,1.68,1.68,0,0,0,.64.49,2.18,2.18,0,0,0,.91.18,2.48,2.48,0,0,0,1.72-.67,2.65,2.65,0,0,0,.55-0.74,3,3,0,0,0,.29-1,2.75,2.75,0,0,0,0-1,1.73,1.73,0,0,0-.34-0.74,1.77,1.77,0,0,0-.64-0.49,2.12,2.12,0,0,0-.9-0.18,2.49,2.49,0,0,0-1,.18,2.6,2.6,0,0,0-.77.49,2.48,2.48,0,0,0-.55.74A3.11,3.11,0,0,0,123.19,74.39Z" transform="translate(-13.22 -24.26)"/><path class="97865a44-2a1c-4a9b-a13d-ea2280bb142e" d="M130.3,71h1.49l1.3,5.19L135.76,71h1.37l-3.6,6.78h-1.42Z" transform="translate(-13.22 -24.26)"/><path class="97865a44-2a1c-4a9b-a13d-ea2280bb142e" d="M138.18,71.83a4.29,4.29,0,0,1,1.37-.75,4.62,4.62,0,0,1,1.47-.25,3.72,3.72,0,0,1,1.26.19,2.09,2.09,0,0,1,.82.5,1.58,1.58,0,0,1,.4.72,2.32,2.32,0,0,1,0,.85L143,76.54Q143,76.9,143,77.2c0,0.2,0,.39,0,0.57h-1.14c0-.17,0-0.34,0-0.51s0-.34.06-0.51h0a3.08,3.08,0,0,1-1.15.93,3.44,3.44,0,0,1-1.39.27,2.9,2.9,0,0,1-.88-0.13,1.87,1.87,0,0,1-.69-0.39,1.54,1.54,0,0,1-.42-0.64,1.82,1.82,0,0,1-.06-0.88,2.16,2.16,0,0,1,.44-1.1,2.74,2.74,0,0,1,.91-0.72,4.44,4.44,0,0,1,1.24-.4,8.58,8.58,0,0,1,1.47-.12h0.94l0-.29a1.25,1.25,0,0,0,0-.51A1.17,1.17,0,0,0,142,72.3a1.19,1.19,0,0,0-.46-0.33,1.79,1.79,0,0,0-.7-0.12,2.81,2.81,0,0,0-.67.07,3,3,0,0,0-.53.18,2.91,2.91,0,0,0-.44.25l-0.41.27Zm3.26,2.69a9.34,9.34,0,0,0-.95.05,4.07,4.07,0,0,0-.9.19,2,2,0,0,0-.7.4,1.06,1.06,0,0,0-.34.66,0.81,0.81,0,0,0,.27.84,1.76,1.76,0,0,0,1,.26,2.21,2.21,0,0,0,.93-0.18,2.1,2.1,0,0,0,.67-0.46,2.13,2.13,0,0,0,.42-0.64,2.56,2.56,0,0,0,.19-0.69l0.07-.43h-0.69Z" transform="translate(-13.22 -24.26)"/><path class="97865a44-2a1c-4a9b-a13d-ea2280bb142e" d="M149.17,72.11h-1.85l-0.42,3.08q0,0.29-.06.56a1.54,1.54,0,0,0,0,.5,0.64,0.64,0,0,0,.24.36,0.91,0.91,0,0,0,.55.14,2.87,2.87,0,0,0,.48,0,1.56,1.56,0,0,0,.46-0.16l-0.17,1.17a1.28,1.28,0,0,1-.29.12l-0.33.06-0.32,0h-0.25a2.41,2.41,0,0,1-1.13-.21,1.17,1.17,0,0,1-.53-0.54,1.55,1.55,0,0,1-.13-0.74q0-.41.08-0.82l0.5-3.53h-1.49L144.7,71h1.49l0.27-1.9h1.29L147.48,71h1.85Z" transform="translate(-13.22 -24.26)"/><path class="97865a44-2a1c-4a9b-a13d-ea2280bb142e" d="M151.07,71h1.29l-0.94,6.78h-1.29Zm0-2.43a1.08,1.08,0,0,1,.37-0.67,1,1,0,0,1,.7-0.28,0.8,0.8,0,0,1,.63.28,0.79,0.79,0,0,1,.19.67,1.09,1.09,0,0,1-.37.67,1,1,0,0,1-.7.28A0.81,0.81,0,0,1,151.12,68.57Z" transform="translate(-13.22 -24.26)"/><path class="97865a44-2a1c-4a9b-a13d-ea2280bb142e" d="M153.61,74.39a3.75,3.75,0,0,1,.47-1.39,4.4,4.4,0,0,1,2.18-1.89,3.86,3.86,0,0,1,1.45-.28,3.29,3.29,0,0,1,1.37.28,3,3,0,0,1,1,.76,3,3,0,0,1,.61,1.13,3.35,3.35,0,0,1,.09,1.39,4.17,4.17,0,0,1-1.4,2.52,4.45,4.45,0,0,1-1.25.76,3.84,3.84,0,0,1-1.45.28,3.33,3.33,0,0,1-1.38-.28,2.93,2.93,0,0,1-1-.76,3,3,0,0,1-.61-1.13A3.16,3.16,0,0,1,153.61,74.39Zm1.37,0a2.72,2.72,0,0,0,0,1,1.77,1.77,0,0,0,.34.74,1.68,1.68,0,0,0,.64.49,2.18,2.18,0,0,0,.91.18,2.48,2.48,0,0,0,1.72-.67,2.65,2.65,0,0,0,.55-0.74,3,3,0,0,0,.29-1,2.75,2.75,0,0,0,0-1,1.73,1.73,0,0,0-.34-0.74,1.77,1.77,0,0,0-.64-0.49,2.12,2.12,0,0,0-.9-0.18,2.49,2.49,0,0,0-1,.18,2.6,2.6,0,0,0-.77.49,2.48,2.48,0,0,0-.55.74A3.11,3.11,0,0,0,155,74.39Z" transform="translate(-13.22 -24.26)"/><path class="97865a44-2a1c-4a9b-a13d-ea2280bb142e" d="M162.9,71h1.29L164,72h0a2.4,2.4,0,0,1,1-.88,3,3,0,0,1,1.43-.34,2.76,2.76,0,0,1,.92.15,1.78,1.78,0,0,1,.72.46,1.85,1.85,0,0,1,.42.81,2.93,2.93,0,0,1,0,1.17L168,77.77h-1.29l0.56-4a2.35,2.35,0,0,0,0-.81,1.26,1.26,0,0,0-.26-0.54,1,1,0,0,0-.45-0.3,1.74,1.74,0,0,0-.57-0.09,2.28,2.28,0,0,0-.77.13,1.82,1.82,0,0,0-.66.41,2.31,2.31,0,0,0-.49.71,3.64,3.64,0,0,0-.29,1l-0.49,3.49H162Z" transform="translate(-13.22 -24.26)"/><path class="97865a44-2a1c-4a9b-a13d-ea2280bb142e" d="M174,74.39A3.75,3.75,0,0,1,174.5,73a4.4,4.4,0,0,1,2.18-1.89,3.86,3.86,0,0,1,1.45-.28,3.29,3.29,0,0,1,1.37.28,3,3,0,0,1,1,.76,3,3,0,0,1,.61,1.13,3.35,3.35,0,0,1,.09,1.39,4.16,4.16,0,0,1-1.4,2.52,4.45,4.45,0,0,1-1.25.76,3.84,3.84,0,0,1-1.45.28,3.33,3.33,0,0,1-1.38-.28,2.93,2.93,0,0,1-1-.76,3,3,0,0,1-.61-1.13A3.16,3.16,0,0,1,174,74.39Zm1.37,0a2.72,2.72,0,0,0,0,1,1.77,1.77,0,0,0,.34.74,1.68,1.68,0,0,0,.64.49,2.18,2.18,0,0,0,.91.18,2.48,2.48,0,0,0,1.72-.67,2.65,2.65,0,0,0,.55-0.74,3,3,0,0,0,.29-1,2.75,2.75,0,0,0,0-1,1.73,1.73,0,0,0-.34-0.74,1.77,1.77,0,0,0-.64-0.49A2.12,2.12,0,0,0,178,72a2.49,2.49,0,0,0-1,.18,2.6,2.6,0,0,0-.77.49,2.48,2.48,0,0,0-.55.74A3.11,3.11,0,0,0,175.4,74.39Z" transform="translate(-13.22 -24.26)"/><path class="97865a44-2a1c-4a9b-a13d-ea2280bb142e" d="M183.66,72.11h-1.46L182.36,71h1.46L184,69.48a3.78,3.78,0,0,1,.8-2,2.41,2.41,0,0,1,1.87-.67h0.45a2.37,2.37,0,0,1,.49.09L187.35,68a1.51,1.51,0,0,0-.34-0.1,2.21,2.21,0,0,0-.37,0,1.39,1.39,0,0,0-.59.11,0.94,0.94,0,0,0-.37.31,1.55,1.55,0,0,0-.22.48,5.76,5.76,0,0,0-.14.64L185.11,71h1.53l-0.16,1.12h-1.54l-0.78,5.66h-1.29Z" transform="translate(-13.22 -24.26)"/><path class="97865a44-2a1c-4a9b-a13d-ea2280bb142e" d="M191.57,67.65H193l1.1,8.09h0l3.52-8.09h1.57l1.24,8.09h0l3.38-8.09h1.43l-4.36,10.12h-1.46l-1.29-8.27h0l-3.59,8.27h-1.46Z" transform="translate(-13.22 -24.26)"/><path class="97865a44-2a1c-4a9b-a13d-ea2280bb142e" d="M205.06,71.83a4.3,4.3,0,0,1,1.37-.75,4.61,4.61,0,0,1,1.47-.25,3.72,3.72,0,0,1,1.26.19,2.09,2.09,0,0,1,.82.5,1.59,1.59,0,0,1,.4.72,2.31,2.31,0,0,1,0,.85l-0.49,3.46q-0.06.36-.09,0.66c0,0.2,0,.39,0,0.57h-1.14c0-.17,0-0.34,0-0.51s0-.34.06-0.51h0a3.09,3.09,0,0,1-1.15.93,3.44,3.44,0,0,1-1.39.27,2.9,2.9,0,0,1-.88-0.13,1.87,1.87,0,0,1-.69-0.39,1.55,1.55,0,0,1-.42-0.64,1.83,1.83,0,0,1-.06-0.88,2.16,2.16,0,0,1,.44-1.1,2.74,2.74,0,0,1,.91-0.72,4.45,4.45,0,0,1,1.24-.4,8.59,8.59,0,0,1,1.47-.12h0.94l0-.29a1.25,1.25,0,0,0,0-.51,1.17,1.17,0,0,0-.24-0.46,1.18,1.18,0,0,0-.46-0.33,1.79,1.79,0,0,0-.7-0.12,2.81,2.81,0,0,0-.67.07,3,3,0,0,0-.53.18,2.93,2.93,0,0,0-.44.25l-0.41.27Zm3.26,2.69a9.33,9.33,0,0,0-.95.05,4.08,4.08,0,0,0-.91.19,2,2,0,0,0-.7.4,1.06,1.06,0,0,0-.34.66,0.81,0.81,0,0,0,.27.84,1.75,1.75,0,0,0,1,.26,2.22,2.22,0,0,0,.93-0.18,2.1,2.1,0,0,0,.67-0.46,2.15,2.15,0,0,0,.42-0.64,2.54,2.54,0,0,0,.19-0.69l0.07-.43h-0.69Z" transform="translate(-13.22 -24.26)"/><path class="97865a44-2a1c-4a9b-a13d-ea2280bb142e" d="M216.05,72.11H214.2l-0.42,3.08q0,0.29-.06.56a1.5,1.5,0,0,0,0,.5,0.63,0.63,0,0,0,.24.36,0.91,0.91,0,0,0,.55.14,2.85,2.85,0,0,0,.48,0,1.55,1.55,0,0,0,.46-0.16l-0.17,1.17a1.3,1.3,0,0,1-.29.12l-0.33.06-0.32,0h-0.25a2.41,2.41,0,0,1-1.13-.21,1.17,1.17,0,0,1-.53-0.54,1.54,1.54,0,0,1-.13-0.74q0-.41.08-0.82l0.5-3.53h-1.49L211.58,71h1.49l0.27-1.9h1.29L214.36,71h1.85Z" transform="translate(-13.22 -24.26)"/><path class="97865a44-2a1c-4a9b-a13d-ea2280bb142e" d="M218.27,74.86a1.61,1.61,0,0,0,.09.81,1.65,1.65,0,0,0,.42.62,2,2,0,0,0,.67.4,2.44,2.44,0,0,0,.84.14,2.13,2.13,0,0,0,1.08-.28,4.31,4.31,0,0,0,.92-0.74l0.86,0.74A4.12,4.12,0,0,1,220,77.95a3.41,3.41,0,0,1-1.41-.27,2.63,2.63,0,0,1-1-.75,2.84,2.84,0,0,1-.54-1.13,3.63,3.63,0,0,1,0-1.41,4,4,0,0,1,.46-1.41,4.24,4.24,0,0,1,.89-1.13,4.1,4.1,0,0,1,1.21-.75,3.82,3.82,0,0,1,1.44-.27,3.08,3.08,0,0,1,1.48.32,2.44,2.44,0,0,1,.91.82,2.75,2.75,0,0,1,.42,1.14,4.86,4.86,0,0,1,0,1.29l-0.07.46h-5.45Zm4.23-1a2.66,2.66,0,0,0,0-.79,1.49,1.49,0,0,0-.27-0.62,1.34,1.34,0,0,0-.55-0.41,2.08,2.08,0,0,0-.83-0.15,2.24,2.24,0,0,0-.89.18,2.73,2.73,0,0,0-.74.46,2.54,2.54,0,0,0-.53.64,1.86,1.86,0,0,0-.25.69h4.09Z" transform="translate(-13.22 -24.26)"/><path class="97865a44-2a1c-4a9b-a13d-ea2280bb142e" d="M225.8,71h1.29l-0.14,1h0a2.43,2.43,0,0,1,.94-0.88,2.59,2.59,0,0,1,1.26-.34,1.68,1.68,0,0,1,.56.09l-0.26,1.39-0.31-.07-0.31,0a2.14,2.14,0,0,0-1.52.53,2.67,2.67,0,0,0-.73,1.64l-0.47,3.4h-1.29Z" transform="translate(-13.22 -24.26)"/><path class="97865a44-2a1c-4a9b-a13d-ea2280bb142e" d="M229.84,77.86a0.81,0.81,0,0,1-.82-0.94,1.08,1.08,0,0,1,.37-0.66,1,1,0,0,1,.7-0.28,0.81,0.81,0,0,1,.82.94,1.08,1.08,0,0,1-.37.67A1,1,0,0,1,229.84,77.86Z" transform="translate(-13.22 -24.26)"/><path class="97865a44-2a1c-4a9b-a13d-ea2280bb142e" d="M233,74.39a3.74,3.74,0,0,1,.47-1.39,4.41,4.41,0,0,1,2.18-1.89,3.87,3.87,0,0,1,1.45-.28,3.29,3.29,0,0,1,1.37.28,3,3,0,0,1,1,.76,3,3,0,0,1,.61,1.13,3.35,3.35,0,0,1,.09,1.39,4.16,4.16,0,0,1-1.4,2.52,4.46,4.46,0,0,1-1.25.76,3.85,3.85,0,0,1-1.45.28,3.32,3.32,0,0,1-1.38-.28,2.93,2.93,0,0,1-1-.76,3,3,0,0,1-.61-1.13A3.16,3.16,0,0,1,233,74.39Zm1.37,0a2.72,2.72,0,0,0,0,1,1.77,1.77,0,0,0,.34.74,1.68,1.68,0,0,0,.64.49,2.17,2.17,0,0,0,.91.18,2.48,2.48,0,0,0,1.72-.67,2.65,2.65,0,0,0,.55-0.74,3,3,0,0,0,.29-1,2.77,2.77,0,0,0,0-1,1.73,1.73,0,0,0-.34-0.74,1.76,1.76,0,0,0-.64-0.49,2.12,2.12,0,0,0-.9-0.18,2.49,2.49,0,0,0-1,.18,2.61,2.61,0,0,0-.77.49,2.48,2.48,0,0,0-.55.74A3.1,3.1,0,0,0,234.33,74.39Z" transform="translate(-13.22 -24.26)"/><path class="97865a44-2a1c-4a9b-a13d-ea2280bb142e" d="M242.25,71h1.29l-0.14,1h0a2.43,2.43,0,0,1,.94-0.88,2.59,2.59,0,0,1,1.26-.34,1.68,1.68,0,0,1,.56.09l-0.26,1.39-0.31-.07-0.31,0a2.14,2.14,0,0,0-1.52.53,2.67,2.67,0,0,0-.73,1.64l-0.47,3.4h-1.29Z" transform="translate(-13.22 -24.26)"/><path class="97865a44-2a1c-4a9b-a13d-ea2280bb142e" d="M253.15,77.72a4.14,4.14,0,0,1-.47,1.41,3.89,3.89,0,0,1-.9,1.1,4.1,4.1,0,0,1-1.28.72,4.62,4.62,0,0,1-1.55.26,5.27,5.27,0,0,1-1.75-.27,3.52,3.52,0,0,1-1.4-.94l1-1.09a3,3,0,0,0,1,.82,2.83,2.83,0,0,0,1.29.28,3.19,3.19,0,0,0,1.22-.21,2.46,2.46,0,0,0,.82-0.54,2.32,2.32,0,0,0,.49-0.75,4,4,0,0,0,.24-0.85l0.13-1h0a2.78,2.78,0,0,1-1.13.91,3.41,3.41,0,0,1-1.37.29,3.29,3.29,0,0,1-1.34-.26,2.71,2.71,0,0,1-1-.73,2.81,2.81,0,0,1-.56-1.1,3.32,3.32,0,0,1-.06-1.38,4.27,4.27,0,0,1,1.29-2.53A3.73,3.73,0,0,1,249,71.1a3.9,3.9,0,0,1,1.47-.27,2.88,2.88,0,0,1,1.29.3,2,2,0,0,1,.91.84h0l0.13-1h1.29ZM250.42,72a2.49,2.49,0,0,0-1,.18,2.61,2.61,0,0,0-.77.49,2.48,2.48,0,0,0-.55.74,3.1,3.1,0,0,0-.29,1,2,2,0,0,0,.36,1.65,1.89,1.89,0,0,0,1.54.62,2.46,2.46,0,0,0,1.72-.62,2.71,2.71,0,0,0,.84-1.65,2.77,2.77,0,0,0,0-1,1.73,1.73,0,0,0-.34-0.74,1.76,1.76,0,0,0-.64-0.49A2.12,2.12,0,0,0,250.42,72Z" transform="translate(-13.22 -24.26)"/><path class="0fdef4f3-b07c-41c8-ab2f-7afe4a1a992e" d="M50.84,75.36c-3.43-.12-9-2.12-12-5.15-7.92-8-6.25-16.15-5.4-18.79-2.6,1.91-10.91,9.19-6.84,21.43,1.81,5.45,6.45,8.9,13,9.7,8.95,1.09,19.06-2.8,23.77-9C61.71,74.41,57.93,75.61,50.84,75.36Z" transform="translate(-13.22 -24.26)"/><path class="455bade4-7708-4813-ab91-58db34b2dfaf" d="M24.09,67.75a18.55,18.55,0,0,1,6.47-16.2c13.8-12.4,1.75-23.38-9.45-14.36s-12.36,32.41,9,43.35A20.27,20.27,0,0,1,24.09,67.75Z" transform="translate(-13.22 -24.26)"/><path class="e528c63d-a316-46bb-8961-63a33d9da8f8" d="M25.56,33.42A21.61,21.61,0,0,1,42.05,33c13.86,5.38,16.79,24.1,8.29,32.38,0,0,12.51-4.07,14.14-17.38C65.81,37,58.53,24.26,42.2,24.26c-22.75,0-27.69,20.29-27.69,20.29A20.92,20.92,0,0,1,25.56,33.42Z" transform="translate(-13.22 -24.26)"/><path class="f52a18cd-1492-4ba8-bc35-25e13c32dbe6" d="M61.78,31.91c2.23,3.74,7,13.5,2.5,22.51A24.9,24.9,0,0,1,50.05,67.1a17.53,17.53,0,0,1-12.2-.24c1.86,2.12,6.91,7,14,7.13,8.52,0.15,11.34-1,15.84-6.37,2.31-2.75,4.2-9.54,3.36-17.19A28.33,28.33,0,0,0,61.78,31.91Z" transform="translate(-13.22 -24.26)"/><path class="455bade4-7708-4813-ab91-58db34b2dfaf" d="M82,34.43h4.07l3.11,23h0.08l10-23h4.47l3.56,23h0.08l9.58-23h4.07L108.64,63.22h-4.11l-3.69-23.5h-0.08L90.5,63.22H86.39Z" transform="translate(-13.22 -24.26)"/><path class="455bade4-7708-4813-ab91-58db34b2dfaf" d="M187.39,52.54l4.67,10.68h4.11l-5.33-11.05a7.76,7.76,0,0,0,6.85-6.4c0.43-3-.62-6.78-6.82-6.78h-8.52L179,63.22h3.29l1.28-9.11,0.22-1.56,0.4-2.87,0.06-.43,1-7.37h4.31c2.6,0,5.12.62,4.65,3.9,0,0-.18,4.46-7.69,4.5Z" transform="translate(-13.22 -24.26)"/><path class="455bade4-7708-4813-ab91-58db34b2dfaf" d="M128.6,39h3l7,24.23h-3.83l-1.59-6H121.58l-3.24,6h-3.83Zm3.73,15.37-3-11.12H129.3l-6.15,11.12h9.17Z" transform="translate(-13.22 -24.26)"/><path class="455bade4-7708-4813-ab91-58db34b2dfaf" d="M146.58,42.07h-7.8L139.21,39H158.1l-0.43,3.08h-7.8l-3,21.15h-3.29Z" transform="translate(-13.22 -24.26)"/><path class="455bade4-7708-4813-ab91-58db34b2dfaf" d="M161.59,39h15.64l-0.43,3.08H164.44l-1,7.22h11.5l-0.43,3.08H163l-1.09,7.77h13l-0.43,3.08H158.19Z" transform="translate(-13.22 -24.26)"/><path class="97865a44-2a1c-4a9b-a13d-ea2280bb142e" d="M205.24,34.43h18.58l-0.51,3.66H208.63l-1.21,8.58h13.66l-0.51,3.66H206.91l-1.3,9.23H221l-0.51,3.66H201.2Z" transform="translate(-13.22 -24.26)"/><path class="97865a44-2a1c-4a9b-a13d-ea2280bb142e" d="M261.37,38.49l-2.14,15.22c-0.43,3.09.55,7.09,5.25,7.09s6.8-4,7.24-7.09l2.14-15.22h3.37L275,54.24A11.09,11.09,0,0,1,264,64c-5.44,0-9.05-4-8.25-9.72L258,38.49h3.37Z" transform="translate(-13.22 -24.26)"/><path class="97865a44-2a1c-4a9b-a13d-ea2280bb142e" d="M283.16,38.49h3.37L283,63.32h-3.37Z" transform="translate(-13.22 -24.26)"/><path class="97865a44-2a1c-4a9b-a13d-ea2280bb142e" d="M297.66,41.64h-8l0.44-3.16h19.36L309,41.64h-8l-3,21.68h-3.37Z" transform="translate(-13.22 -24.26)"/><path class="97865a44-2a1c-4a9b-a13d-ea2280bb142e" d="M319,52.73l-7.4-14.24h4.31l5.24,10.91,8.51-10.91h4.1l-11.4,14.24-1.49,10.59h-3.37Z" transform="translate(-13.22 -24.26)"/><path class="97865a44-2a1c-4a9b-a13d-ea2280bb142e" d="M245.28,60.87h0c-1.67,0-6-.07-8.29-0.26l-0.23,0a4.44,4.44,0,0,1-1.14-.19h0a8.34,8.34,0,0,1-1.61-.55,8.77,8.77,0,0,1-2.95-2.2,9.53,9.53,0,0,1-1.85-3.26,11.17,11.17,0,0,1-.56-4,10.06,10.06,0,0,1,.87-3.8,10.17,10.17,0,0,1,2.12-3.1,10,10,0,0,1,3.1-2.09,9.46,9.46,0,0,1,3.82-.77,9.31,9.31,0,0,1,3.82.77,8.88,8.88,0,0,1,4.86,5.21,10.15,10.15,0,0,1,.58,3.85,11.59,11.59,0,0,1-.84,4,10.24,10.24,0,0,1-2.08,3.25A9.19,9.19,0,0,1,243.37,59a0.14,0.14,0,0,0,.07.26h4.22a10.94,10.94,0,0,0,2.19-2.71,12.86,12.86,0,0,0,1.24-3,14,14,0,0,0,.5-3.25A12.31,12.31,0,0,0,248,41a12.6,12.6,0,0,0-4.1-2.73,13.13,13.13,0,0,0-5.12-1,14,14,0,0,0-5.33,1,13.67,13.67,0,0,0-8.55,12.34A13,13,0,0,0,225.8,56a12.27,12.27,0,0,0,2.75,4.2,12.69,12.69,0,0,0,4.2,2.75,13.54,13.54,0,0,0,5.17,1h15L253,60.87h-7.7Z" transform="translate(-13.22 -24.26)"/><path class="97865a44-2a1c-4a9b-a13d-ea2280bb142e" d="M335.82,42a1,1,0,0,0,.4.34,1.2,1.2,0,0,0,.5.11,1,1,0,0,0,.29,0,0.89,0.89,0,0,0,.27-0.13,0.73,0.73,0,0,0,.2-0.22,0.59,0.59,0,0,0,.08-0.31,0.46,0.46,0,0,0-.16-0.37,1.35,1.35,0,0,0-.39-0.22l-0.5-.17a2,2,0,0,1-.5-0.22,1.23,1.23,0,0,1-.39-0.39,1.21,1.21,0,0,1-.16-0.66,1.13,1.13,0,0,1,.34-0.78,1.4,1.4,0,0,1,.45-0.29,1.65,1.65,0,0,1,.66-0.12,2.28,2.28,0,0,1,.67.1,1.15,1.15,0,0,1,.56.39l-0.47.43a0.77,0.77,0,0,0-.31-0.27,1,1,0,0,0-.45-0.1,1.09,1.09,0,0,0-.4.06,0.71,0.71,0,0,0-.25.16,0.57,0.57,0,0,0-.13.21,0.65,0.65,0,0,0,0,.21,0.53,0.53,0,0,0,.16.41,1.21,1.21,0,0,0,.39.23,4.77,4.77,0,0,0,.5.16,2.16,2.16,0,0,1,.5.2,1.17,1.17,0,0,1,.39.35,1,1,0,0,1,.16.6,1.27,1.27,0,0,1-.12.55,1.24,1.24,0,0,1-.31.41,1.4,1.4,0,0,1-.47.26,1.81,1.81,0,0,1-.58.09,2.09,2.09,0,0,1-.77-0.14,1.27,1.27,0,0,1-.58-0.44Z" transform="translate(-13.22 -24.26)"/><path class="97865a44-2a1c-4a9b-a13d-ea2280bb142e" d="M339,38.68h0.86l1.35,3.21h0l1.34-3.21h0.86v4.24h-0.58V39.44h0l-1.43,3.49H341l-1.43-3.49h0v3.49H339V38.68Z" transform="translate(-13.22 -24.26)"/></svg>