<svg id="efaab854-da2d-4a67-9b25-a695765e5a9a" data-name="Layer 1" xmlns="http://www.w3.org/2000/svg" viewBox="0 0 93.45 105.3"><defs><style>.c8bee1b9-b92e-454d-8382-f429a9bb865a{fill:#fff;}</style></defs><title>phone_icon</title><path class="c8bee1b9-b92e-454d-8382-f429a9bb865a" d="M352.8,430c-0.3-2.4-2.8-3.8-4.6-5.2-2-1.5-14.3-11.1-19.2-13.1-4.3-1.8-5.6,1.6-7.7,4.6a10.54,10.54,0,0,0-.7,1.1l28.3,20.2C350.7,435.6,353.1,432.1,352.8,430Z" transform="translate(-259.38 -343.11)"/><path class="c8bee1b9-b92e-454d-8382-f429a9bb865a" d="M317,421.7a3.64,3.64,0,0,1-3.8-.1c-14.3-8.8-24.4-23.3-32.8-39.4-0.9-1.8-.3-3.6.3-4a9.45,9.45,0,0,1,2.4-1.3l-12.3-28.3c-3.3,2.5-6.2,4.5-8.5,8-1.7,2.6-3.4,4.4-2.8,8,1.5,9.8,6.2,31.4,22.4,51.5,15.7,19.5,38.7,29.5,48.9,32.2,2.3,0.6,5.4-1.2,7.4-2.3a62,62,0,0,0,7.6-5.5l-27.6-19.6A6.23,6.23,0,0,1,317,421.7Z" transform="translate(-259.38 -343.11)"/><path class="c8bee1b9-b92e-454d-8382-f429a9bb865a" d="M293,372.2c1.9-1,2.4-3.4,1.4-5.9a218.91,218.91,0,0,0-9.3-20.5c-1.1-1.3-2.4-3.6-5.5-2.3a38.42,38.42,0,0,0-5.4,2.5l12.7,29.2C289.4,374,290.4,373.6,293,372.2Z" transform="translate(-259.38 -343.11)"/></svg>