<?xml version="1.0" encoding="UTF-8" standalone="no"?>
<svg width="41px" height="42px" viewBox="0 0 41 42" version="1.1" xmlns="http://www.w3.org/2000/svg" xmlns:xlink="http://www.w3.org/1999/xlink">
    <!-- Generator: Sketch 40.3 (33839) - http://www.bohemiancoding.com/sketch -->
    <title>Page 1</title>
    <desc>Created with Sketch.</desc>
    <defs></defs>
    <g id="Symbols" stroke="none" stroke-width="1" fill="none" fill-rule="evenodd">
        <g id="Footer-v2" transform="translate(-492.000000, -78.000000)" fill="#63B1E5">
            <path d="M512.5,119.09589 C501.178533,119.09589 492,109.89589 492,98.5479452 C492,87.1993151 501.178533,78 512.5,78 C523.821467,78 533,87.1993151 533,98.5479452 C533,109.89589 523.821467,119.09589 512.5,119.09589 M515.34745,90.5226027 C513.5578,91.1753425 512.426883,92.8589041 512.55535,94.7013699 L512.5984,95.4123288 L511.882267,95.3253425 C509.276717,94.9917808 506.99985,93.860274 505.0667,91.9589041 L504.12165,91.0157534 L503.878383,91.7123288 C503.36315,93.2650685 503.692517,94.9047945 504.766033,96.0075342 C505.338667,96.6171233 505.209517,96.7041096 504.2221,96.3410959 C503.878383,96.2253425 503.577717,96.1383562 503.549017,96.1815068 C503.44925,96.2835616 503.792283,97.6034247 504.06425,98.1260274 C504.436667,98.8520548 505.195167,99.5623288 506.0261,99.9835616 L506.727883,100.317123 L505.897633,100.331507 C505.096083,100.331507 505.067383,100.34589 505.153483,100.65137 C505.4398,101.594521 506.570717,102.59589 507.830783,103.031507 L508.718433,103.335616 L507.945583,103.8 C506.800317,104.468493 505.45415,104.845205 504.107983,104.873288 C503.462917,104.887671 502.933333,104.94589 502.933333,104.989726 C502.933333,105.134247 504.680617,105.946575 505.696733,106.266438 C508.74645,107.209589 512.369483,106.80274 515.089833,105.192466 C517.022983,104.04589 518.95545,101.767808 519.858133,99.5616438 C520.34535,98.3869863 520.831883,96.2390411 520.831883,95.209589 C520.831883,94.5417808 520.874933,94.4547945 521.676483,93.6568493 C522.14935,93.1924658 522.592833,92.6849315 522.678933,92.539726 C522.822433,92.2636986 522.8074,92.2636986 522.0776,92.510274 C520.860583,92.9458904 520.688383,92.8876712 521.2904,92.2349315 C521.733883,91.7705479 522.26415,90.9287671 522.26415,90.6821918 C522.26415,90.6390411 522.049583,90.7109589 521.805633,90.8417808 C521.548017,90.9869863 520.975383,91.2047945 520.545567,91.3349315 L519.772717,91.5821918 L519.070933,91.1027397 C518.684167,90.8417808 518.140917,90.5513699 517.853917,90.4643836 C517.123433,90.2616438 516.006183,90.290411 515.34745,90.5226027" id="Page-1"></path>
        </g>
    </g>
</svg>