<?xml version="1.0" encoding="UTF-8" standalone="no"?>
<svg width="41px" height="42px" viewBox="0 0 41 42" version="1.1" xmlns="http://www.w3.org/2000/svg" xmlns:xlink="http://www.w3.org/1999/xlink">
    <!-- Generator: Sketch 40.3 (33839) - http://www.bohemiancoding.com/sketch -->
    <title>Page 1</title>
    <desc>Created with Sketch.</desc>
    <defs></defs>
    <g id="Symbols" stroke="none" stroke-width="1" fill="none" fill-rule="evenodd">
        <g id="Footer-v2" transform="translate(-557.000000, -78.000000)" fill="#63B1E5">
            <path d="M567.636083,108.230822 L572.275233,108.230822 L572.275233,94.239726 L567.636083,94.239726 L567.636083,108.230822 Z M577.5,119.09589 C566.178533,119.09589 557,109.89589 557,98.5479452 C557,87.1993151 566.178533,78 577.5,78 C588.821467,78 598,87.1993151 598,98.5479452 C598,109.89589 588.821467,119.09589 577.5,119.09589 L577.5,119.09589 Z M569.955317,92.330137 C571.572767,92.330137 572.580683,91.2547945 572.580683,89.9116438 C572.550617,88.539726 571.572767,87.4952055 569.986067,87.4952055 C568.399367,87.4952055 567.361383,88.5390411 567.361383,89.9116438 C567.361383,91.2547945 568.368617,92.330137 569.925933,92.330137 L569.955317,92.330137 Z M589.005283,108.230822 L589.005283,100.208904 C589.005283,95.9109589 586.716117,93.9109589 583.66435,93.9109589 C581.201617,93.9109589 580.098033,95.2691781 579.483033,96.2219178 L579.483033,94.239726 L574.8432,94.239726 C574.9047,95.5527397 574.8432,108.230822 574.8432,108.230822 L579.483033,108.230822 L579.483033,100.417123 C579.483033,100 579.5131,99.5821918 579.6361,99.2835616 C579.970933,98.4479452 580.734217,97.5828767 582.015467,97.5828767 C583.6951,97.5828767 584.366133,98.8657534 584.366133,100.74589 L584.366133,108.231507 L589.005283,108.231507 L589.005283,108.230822 Z" id="Page-1"></path>
        </g>
    </g>
</svg>