<?xml version="1.0" encoding="UTF-8" standalone="no"?>
<svg width="331px" height="61px" viewBox="0 0 331 61" version="1.1" xmlns="http://www.w3.org/2000/svg" xmlns:xlink="http://www.w3.org/1999/xlink">
    <!-- Generator: Sketch 40.3 (33839) - http://www.bohemiancoding.com/sketch -->
    <title>waterequity_reversedcolor</title>
    <desc>Created with Sketch.</desc>
    <defs>
        <polygon id="path-1" points="0.000176478072 60.94 52.9951308 60.94 52.9951308 0.711 0.000176478072 0.711"></polygon>
    </defs>
    <g id="Page-1" stroke="none" stroke-width="1" fill="none" fill-rule="evenodd">
        <g id="waterequity_reversedcolor">
            <g id="Group-5">
                <mask id="mask-2" fill="white">
                    <use xlink:href="#path-1"></use>
                </mask>
                <g id="Clip-2"></g>
                <path d="M38.778,53.388 C35.238,53.264 29.511,51.201 26.432,48.084 C18.27,39.823 19.993,31.434 20.864,28.714 C18.189,30.687 9.621,38.188 13.812,50.808 C15.68,56.43 20.456,59.982 27.261,60.812 C36.486,61.935 46.908,57.925 51.759,51.565 C49.984,52.411 46.089,53.643 38.778,53.388" id="Fill-1" fill="#87B6D7" mask="url(#mask-2)"></path>
                <path d="M11.204,45.547 C10.783,39.886 12.058,34.073 17.875,28.846 C32.102,16.062 19.674,4.745 8.13,14.047 C-3.413,23.349 -4.612,47.455 17.438,58.73 C17.438,58.73 11.816,53.783 11.204,45.547" id="Fill-3" fill="#6BA9D0" mask="url(#mask-2)"></path>
                <path d="M12.716,10.157 C17.51,8.003 23.773,7.371 29.719,9.677 C44.011,15.221 47.022,34.521 38.264,43.052 C38.264,43.052 51.157,38.858 52.835,25.133 C54.213,13.856 46.709,0.711 29.868,0.711 C6.419,0.712 1.322,21.625 1.322,21.625 C1.322,21.625 3.87,14.129 12.716,10.157" id="Fill-4" fill="#C1D8E7" mask="url(#mask-2)"></path>
            </g>
            <path d="M50.059,8.601 C52.356,12.453 57.28,22.521 52.638,31.804 C49.492,38.097 44.143,42.862 37.964,44.877 C33.6,46.302 29.188,46.208 25.391,44.634 C27.308,46.822 32.514,51.862 39.855,51.983 C48.64,52.135 51.541,50.963 56.187,45.419 C58.564,42.581 60.517,35.584 59.649,27.702 C59.042,22.188 56.863,14.562 50.059,8.601" id="Fill-6" fill="#A4C6DF"></path>
            <text id="an-innovation-of-water.org" font-family="Avenir-MediumOblique, Avenir" font-size="14.7404" font-style="italic" font-weight="500" fill="#FFFFFF">
                <tspan x="70.9194" y="50.6547532">an innovation of wate</tspan>
                <tspan x="214.859406" y="50.6547532" letter-spacing="-1.3561168">r</tspan>
                <tspan x="217.60112" y="50.6547532">.o</tspan>
                <tspan x="230.454749" y="50.6547532" letter-spacing="-0.2653272">r</tspan>
                <tspan x="235.378043" y="50.6547532">g</tspan>
            </text>
            <polyline id="Fill-7" fill="#6BA9D0" points="70.92 11.197 75.111 11.197 78.317 34.922 78.4 34.922 88.734 11.197 93.345 11.197 97.011 34.922 97.095 34.922 106.968 11.197 111.16 11.197 98.355 40.874 94.121 40.874 90.316 16.646 90.232 16.646 79.659 40.874 75.426 40.874 70.92 11.197"></polyline>
            <path d="M179.535,29.868 L184.347,40.874 L188.58,40.874 L183.091,29.48 C186.925,29.057 189.71,26.058 190.156,22.883 C190.598,19.743 189.515,15.899 183.13,15.899 L174.346,15.899 L170.836,40.874 L174.223,40.874 L176.186,26.905 L176.249,26.458 L177.316,18.862 L181.761,18.862 C184.442,18.862 187.034,19.497 186.558,22.883 C186.558,22.883 186.373,27.477 178.632,27.525 L179.535,29.868" id="Fill-8" fill="#6BA9D0"></path>
            <path d="M122.772,31.738 L119.727,20.273 L119.657,20.273 L113.318,31.738 L122.772,31.738 L122.772,31.738 Z M118.93,15.899 L122,15.899 L129.178,40.874 L125.227,40.874 L123.59,34.701 L111.702,34.701 L108.365,40.874 L104.414,40.874 L118.93,15.899 L118.93,15.899 Z" id="Fill-9" fill="#6BA9D0"></path>
            <polyline id="Fill-10" fill="#6BA9D0" points="137.466 19.073 129.423 19.073 129.869 15.899 149.342 15.899 148.896 19.073 140.853 19.073 137.789 40.874 134.402 40.874 137.466 19.073"></polyline>
            <polyline id="Fill-11" fill="#6BA9D0" points="152.942 15.899 169.063 15.899 168.617 19.073 155.882 19.073 154.836 26.517 166.689 26.517 166.243 29.692 154.39 29.692 153.264 37.699 166.634 37.699 166.188 40.874 149.432 40.874 152.942 15.899"></polyline>
            <polyline id="Fill-12" fill="#FFFFFF" points="197.939 11.197 217.095 11.197 216.565 14.97 201.433 14.97 200.19 23.814 214.274 23.814 213.744 27.587 199.66 27.587 198.322 37.102 214.209 37.102 213.679 40.874 193.769 40.874 197.939 11.197"></polyline>
            <path d="M255.798,15.379 L253.592,31.071 C253.145,34.253 254.157,38.375 259.002,38.375 C263.846,38.375 266.016,34.253 266.463,31.071 L268.669,15.379 L272.14,15.379 L269.858,31.613 C269.025,37.543 264.148,41.629 258.544,41.629 C252.94,41.629 249.211,37.543 250.045,31.613 L252.326,15.379 L255.798,15.379" id="Fill-13" fill="#FFFFFF"></path>
            <polyline id="Fill-14" fill="#FFFFFF" points="278.253 15.379 281.724 15.379 278.126 40.978 274.656 40.978 278.253 15.379"></polyline>
            <polyline id="Fill-15" fill="#FFFFFF" points="293.2 18.633 284.957 18.633 285.414 15.379 305.372 15.379 304.915 18.633 296.671 18.633 293.531 40.978 290.059 40.978 293.2 18.633"></polyline>
            <polyline id="Fill-16" fill="#FFFFFF" points="315.207 30.059 307.58 15.379 312.027 15.379 317.425 26.624 326.2 15.379 330.431 15.379 318.677 30.059 317.143 40.978 313.672 40.978 315.207 30.059"></polyline>
            <path d="M239.214,38.453 L239.214,38.448 C237.488,38.432 233.008,38.374 230.666,38.182 C230.585,38.175 230.503,38.169 230.424,38.161 C229.828,38.105 229.401,38.04 229.25,37.963 L229.266,37.957 C228.688,37.821 228.132,37.639 227.607,37.395 C226.416,36.841 225.403,36.085 224.567,35.126 C223.731,34.169 223.096,33.047 222.662,31.762 C222.228,30.476 222.037,29.103 222.088,27.641 C222.136,26.255 222.433,24.951 222.981,23.728 C223.527,22.506 224.257,21.441 225.171,20.534 C226.085,19.626 227.149,18.908 228.366,18.379 C229.581,17.849 230.894,17.585 232.306,17.585 C233.742,17.585 235.057,17.849 236.248,18.379 C237.439,18.908 238.46,19.626 239.31,20.534 C240.16,21.441 240.81,22.512 241.259,23.747 C241.707,24.982 241.907,26.305 241.857,27.717 C241.806,29.179 241.519,30.552 240.995,31.837 C240.471,33.123 239.758,34.238 238.856,35.183 C238.369,35.693 237.827,36.139 237.24,36.529 C237.119,36.609 237.171,36.794 237.316,36.794 L241.644,36.794 C241.652,36.791 241.659,36.788 241.667,36.785 C242.568,35.976 243.32,35.045 243.925,33.992 C244.475,33.035 244.902,32.007 245.205,30.911 C245.507,29.815 245.679,28.7 245.718,27.565 C245.785,25.651 245.488,23.879 244.826,22.254 C244.165,20.628 243.237,19.217 242.045,18.02 C240.851,16.823 239.441,15.884 237.814,15.203 C236.187,14.523 234.429,14.183 232.538,14.183 C230.572,14.183 228.739,14.529 227.039,15.222 C225.339,15.916 223.844,16.88 222.553,18.114 C221.262,19.349 220.234,20.805 219.471,22.481 C218.706,24.157 218.29,25.978 218.221,27.944 C218.152,29.935 218.453,31.768 219.126,33.444 C219.797,35.121 220.742,36.563 221.961,37.772 C223.178,38.982 224.62,39.928 226.285,40.608 C227.95,41.288 229.727,41.629 231.618,41.629 L247.042,41.629 L247.153,38.453 L239.214,38.453" id="Fill-17" fill="#FFFFFF"></path>
        </g>
    </g>
</svg>