<svg id="903e8b89-d029-40c8-991d-9506499423aa" data-name="Layer 1" xmlns="http://www.w3.org/2000/svg" viewBox="0 0 330.1 58.59"><defs><style>.\35 836e218-840c-4fe4-ad13-e368480497dd{fill:#0047ba;}.becb5bd1-a070-4335-8057-1c8a49ec1704{fill:#003a70;}.fa79a322-460a-44f8-aec0-2a4f0a57582e{fill:#40b4e5;}.\36 163a521-0249-4561-b0e6-fad9a3cf4e19{fill:#67b2e8;}.\30 bb6a172-5a2e-4f41-abb6-3d70ffc8137f{fill:#808285;}</style></defs><title>logo</title><path class="5836e218-840c-4fe4-ad13-e368480497dd" d="M51.4,76.4c-3.4-.1-9-2.1-12-5.1-7.9-8-6.2-16.2-5.4-18.8-2.6,1.9-10.9,9.2-6.8,21.4,1.8,5.5,6.4,8.9,13,9.7,8.9,1.1,19.1-2.8,23.8-9C62.3,75.4,58.5,76.6,51.4,76.4Z" transform="translate(-13.8 -25.2)"/><path class="becb5bd1-a070-4335-8057-1c8a49ec1704" d="M24.7,68.8a18.47,18.47,0,0,1,6.5-16.2C45,40.2,32.9,29.2,21.7,38.2s-12.4,32.4,9,43.3A19.77,19.77,0,0,1,24.7,68.8Z" transform="translate(-13.8 -25.2)"/><path class="fa79a322-460a-44f8-aec0-2a4f0a57582e" d="M26.1,34.4a21.75,21.75,0,0,1,16.5-.5C56.5,39.3,59.4,58,50.9,66.3c0,0,12.5-4.1,14.1-17.4C66.3,38,59.1,25.2,42.7,25.2,20,25.2,15,45.5,15,45.5A21.19,21.19,0,0,1,26.1,34.4Z" transform="translate(-13.8 -25.2)"/><path class="6163a521-0249-4561-b0e6-fad9a3cf4e19" d="M62.3,32.9c2.2,3.7,7,13.5,2.5,22.5A25.17,25.17,0,0,1,50.6,68.1a17.6,17.6,0,0,1-12.2-.2c1.9,2.1,6.9,7,14,7.1,8.5,0.1,11.3-1,15.8-6.4,2.3-2.8,4.2-9.5,3.4-17.2A28,28,0,0,0,62.3,32.9Z" transform="translate(-13.8 -25.2)"/><path class="0bb6a172-5a2e-4f41-abb6-3d70ffc8137f" d="M84.4,73.7a6.38,6.38,0,0,1,1.4-.8,4,4,0,0,1,1.5-.3,5.07,5.07,0,0,1,1.3.2,2.18,2.18,0,0,1,.8.5,2.51,2.51,0,0,1,.4.7,1.39,1.39,0,0,1,0,.9l-0.5,3.5c0,0.2-.1.5-0.1,0.7v0.6H88V79.2a0.9,0.9,0,0,1,.1-0.5h0a3.45,3.45,0,0,1-1.2.9,3.19,3.19,0,0,1-1.4.3,2.77,2.77,0,0,1-.9-0.1,1.61,1.61,0,0,1-.7-0.4,2.09,2.09,0,0,1-.4-0.6,2.48,2.48,0,0,1-.1-0.9,3.58,3.58,0,0,1,.4-1.1,2.18,2.18,0,0,1,.9-0.7,5.64,5.64,0,0,1,1.2-.4,7.57,7.57,0,0,1,1.5-.1h0.9V74.8a1.06,1.06,0,0,0-.2-0.5,2.19,2.19,0,0,0-.5-0.3,1.48,1.48,0,0,0-.7-0.1,1.7,1.7,0,0,0-.7.1,0.76,0.76,0,0,0-.5.2,0.76,0.76,0,0,1-.4.2c-0.1.1-.3,0.2-0.4,0.3Zm3.3,2.7a2.77,2.77,0,0,0-.9.1,2.92,2.92,0,0,0-.9.2,1.61,1.61,0,0,0-.7.4,0.91,0.91,0,0,0-.3.7,0.59,0.59,0,0,0,.3.8,1.49,1.49,0,0,0,1,.3,2,2,0,0,0,.9-0.2,1.79,1.79,0,0,0,.7-0.5,2.09,2.09,0,0,0,.4-0.6,1.85,1.85,0,0,0,.2-0.7l0.1-.4H87.7V76.4Z" transform="translate(-13.8 -25.2)"/><path class="0bb6a172-5a2e-4f41-abb6-3d70ffc8137f" d="M91.9,72.9h1.3l-0.1,1h0a1.79,1.79,0,0,1,1-.9,3.19,3.19,0,0,1,1.4-.3,2.92,2.92,0,0,1,.9.2,1.79,1.79,0,0,1,.7.5,2,2,0,0,1,.4.8,2.4,2.4,0,0,1,0,1.2L97,79.7H95.7l0.6-4V74.9a0.85,0.85,0,0,0-.3-0.5,2.19,2.19,0,0,0-.5-0.3,1.27,1.27,0,0,0-.6-0.1,2.2,2.2,0,0,0-.8.1,1.61,1.61,0,0,0-.7.4,1.79,1.79,0,0,0-.5.7c-0.1.3-.2,0.6-0.3,1l-0.5,3.5H91Z" transform="translate(-13.8 -25.2)"/><path class="0bb6a172-5a2e-4f41-abb6-3d70ffc8137f" d="M103.9,72.9h1.3l-0.9,6.8H103Zm0.1-2.4a1,1,0,0,1,.4-0.7,0.91,0.91,0,0,1,.7-0.3,0.6,0.6,0,0,1,.6.3,1.45,1.45,0,0,1,.2.7,1,1,0,0,1-.4.7,0.91,0.91,0,0,1-.7.3,0.6,0.6,0,0,1-.6-0.3A1,1,0,0,1,104,70.5Z" transform="translate(-13.8 -25.2)"/><path class="0bb6a172-5a2e-4f41-abb6-3d70ffc8137f" d="M107.3,72.9h1.3l-0.1,1h0a1.79,1.79,0,0,1,1-.9,3.19,3.19,0,0,1,1.4-.3,2.92,2.92,0,0,1,.9.2,1.79,1.79,0,0,1,.7.5,2,2,0,0,1,.4.8,2.4,2.4,0,0,1,0,1.2l-0.6,4.4H111l0.6-4V75a0.85,0.85,0,0,0-.3-0.5,2.19,2.19,0,0,0-.5-0.3,1.27,1.27,0,0,0-.6-0.1,2.2,2.2,0,0,0-.8.1,1.61,1.61,0,0,0-.7.4,1.79,1.79,0,0,0-.5.7c-0.1.3-.2,0.6-0.3,1l-0.5,3.5h-1.3Z" transform="translate(-13.8 -25.2)"/><path class="0bb6a172-5a2e-4f41-abb6-3d70ffc8137f" d="M115.2,72.9h1.3l-0.1,1h0a1.79,1.79,0,0,1,1-.9,3.19,3.19,0,0,1,1.4-.3,2.92,2.92,0,0,1,.9.2,1.79,1.79,0,0,1,.7.5,2,2,0,0,1,.4.8,2.4,2.4,0,0,1,0,1.2l-0.6,4.4H119l0.6-4V75a0.85,0.85,0,0,0-.3-0.5,2.19,2.19,0,0,0-.5-0.3,1.27,1.27,0,0,0-.6-0.1,2.2,2.2,0,0,0-.8.1,1.61,1.61,0,0,0-.7.4,1.79,1.79,0,0,0-.5.7c-0.1.3-.2,0.6-0.3,1l-0.5,3.5h-1.3Z" transform="translate(-13.8 -25.2)"/><path class="0bb6a172-5a2e-4f41-abb6-3d70ffc8137f" d="M122.4,76.3a3.36,3.36,0,0,1,.5-1.4,4.81,4.81,0,0,1,.9-1.1,5.67,5.67,0,0,1,1.3-.8,3.65,3.65,0,0,1,1.5-.3,2.9,2.9,0,0,1,1.4.3,2,2,0,0,1,1,.8,2.38,2.38,0,0,1,.6,1.1,3.21,3.21,0,0,1,.1,1.4,3.36,3.36,0,0,1-.5,1.4,4.81,4.81,0,0,1-.9,1.1,5.67,5.67,0,0,1-1.3.8,3.65,3.65,0,0,1-1.5.3,2.9,2.9,0,0,1-1.4-.3,2,2,0,0,1-1-.8,6,6,0,0,1-.6-1.1A2.2,2.2,0,0,1,122.4,76.3Zm1.4,0v1a4.87,4.87,0,0,0,.3.7,1.47,1.47,0,0,0,.6.5,2.39,2.39,0,0,0,.9.2,3.55,3.55,0,0,0,1-.2,3.51,3.51,0,0,0,.8-0.5,3.74,3.74,0,0,0,.6-0.7c0.1-.3.2-0.6,0.3-1v-1a1.49,1.49,0,0,0-.3-0.7,2.65,2.65,0,0,0-.6-0.5,2.39,2.39,0,0,0-.9-0.2,3.55,3.55,0,0,0-1,.2,3.51,3.51,0,0,0-.8.5c-0.2.2-.4,0.5-0.6,0.7A1.93,1.93,0,0,0,123.8,76.3Z" transform="translate(-13.8 -25.2)"/><path class="0bb6a172-5a2e-4f41-abb6-3d70ffc8137f" d="M130.9,72.9h1.5l1.3,5.2,2.7-5.2h1.4l-3.6,6.8h-1.4Z" transform="translate(-13.8 -25.2)"/><path class="0bb6a172-5a2e-4f41-abb6-3d70ffc8137f" d="M138.7,73.7a6.38,6.38,0,0,1,1.4-.8,4,4,0,0,1,1.5-.3,5.07,5.07,0,0,1,1.3.2,2.18,2.18,0,0,1,.8.5,2.51,2.51,0,0,1,.4.7,1.39,1.39,0,0,1,0,.9l-0.5,3.5c0,0.2-.1.5-0.1,0.7v0.6h-1.1V79.2a0.9,0.9,0,0,1,.1-0.5h0a3.45,3.45,0,0,1-1.2.9,3.19,3.19,0,0,1-1.4.3,2.77,2.77,0,0,1-.9-0.1,1.61,1.61,0,0,1-.7-0.4,2.09,2.09,0,0,1-.4-0.6,2.48,2.48,0,0,1-.1-0.9,3.58,3.58,0,0,1,.4-1.1,2.18,2.18,0,0,1,.9-0.7,5.64,5.64,0,0,1,1.2-.4,7.57,7.57,0,0,1,1.5-.1h0.9V74.8a1.06,1.06,0,0,0-.2-0.5A2.19,2.19,0,0,0,142,74a1.48,1.48,0,0,0-.7-0.1,1.7,1.7,0,0,0-.7.1,0.76,0.76,0,0,0-.5.2,0.76,0.76,0,0,1-.4.2c-0.1.1-.3,0.2-0.4,0.3Zm3.3,2.7a2.77,2.77,0,0,0-.9.1,2.92,2.92,0,0,0-.9.2,1.61,1.61,0,0,0-.7.4,0.91,0.91,0,0,0-.3.7,0.59,0.59,0,0,0,.3.8,1.49,1.49,0,0,0,1,.3,2,2,0,0,0,.9-0.2,1.79,1.79,0,0,0,.7-0.5,2.09,2.09,0,0,0,.4-0.6,1.85,1.85,0,0,0,.2-0.7l0.1-.4H142V76.4Z" transform="translate(-13.8 -25.2)"/><path class="0bb6a172-5a2e-4f41-abb6-3d70ffc8137f" d="M149.7,74h-1.9l-0.4,3.1c0,0.2-.1.4-0.1,0.6v0.5a0.76,0.76,0,0,0,.2.4,0.92,0.92,0,0,0,.6.1h0.5a1.06,1.06,0,0,0,.5-0.2l-0.2,1.2c-0.1,0-.2.1-0.3,0.1a0.37,0.37,0,0,0-.3.1h-0.6a2.68,2.68,0,0,1-1.1-.2,0.82,0.82,0,0,1-.5-0.5,1.7,1.7,0,0,1-.1-0.7,2.49,2.49,0,0,1,.1-0.8l0.5-3.5h-1.5l0.2-1.1h1.5L147,71h1.3L148,72.9h1.9Z" transform="translate(-13.8 -25.2)"/><path class="0bb6a172-5a2e-4f41-abb6-3d70ffc8137f" d="M151.6,72.9h1.3L152,79.7h-1.3Zm0.1-2.4a1,1,0,0,1,.4-0.7,0.91,0.91,0,0,1,.7-0.3,0.6,0.6,0,0,1,.6.3,1.45,1.45,0,0,1,.2.7,1,1,0,0,1-.4.7,0.91,0.91,0,0,1-.7.3,0.6,0.6,0,0,1-.6-0.3A0.66,0.66,0,0,1,151.7,70.5Z" transform="translate(-13.8 -25.2)"/><path class="0bb6a172-5a2e-4f41-abb6-3d70ffc8137f" d="M154.2,76.3a3.36,3.36,0,0,1,.5-1.4,4.81,4.81,0,0,1,.9-1.1,5.67,5.67,0,0,1,1.3-.8,3.65,3.65,0,0,1,1.5-.3,2.9,2.9,0,0,1,1.4.3,2,2,0,0,1,1,.8,2.38,2.38,0,0,1,.6,1.1,3.21,3.21,0,0,1,.1,1.4,3.36,3.36,0,0,1-.5,1.4,4.81,4.81,0,0,1-.9,1.1,5.67,5.67,0,0,1-1.3.8,3.65,3.65,0,0,1-1.5.3,2.9,2.9,0,0,1-1.4-.3,2,2,0,0,1-1-.8,6,6,0,0,1-.6-1.1A2.2,2.2,0,0,1,154.2,76.3Zm1.3,0v1a4.87,4.87,0,0,0,.3.7,1.47,1.47,0,0,0,.6.5,2.39,2.39,0,0,0,.9.2,3.55,3.55,0,0,0,1-.2,3.51,3.51,0,0,0,.8-0.5,3.74,3.74,0,0,0,.6-0.7c0.1-.3.2-0.6,0.3-1v-1a1.49,1.49,0,0,0-.3-0.7,2.65,2.65,0,0,0-.6-0.5,2.39,2.39,0,0,0-.9-0.2,3.55,3.55,0,0,0-1,.2,3.51,3.51,0,0,0-.8.5c-0.2.2-.4,0.5-0.6,0.7S155.6,76,155.5,76.3Z" transform="translate(-13.8 -25.2)"/><path class="0bb6a172-5a2e-4f41-abb6-3d70ffc8137f" d="M163.5,72.9h1.3l-0.1,1h0a1.79,1.79,0,0,1,1-.9,3.19,3.19,0,0,1,1.4-.3,2.92,2.92,0,0,1,.9.2,1.79,1.79,0,0,1,.7.5,2,2,0,0,1,.4.8,2.4,2.4,0,0,1,0,1.2l-0.6,4.4h-1.3l0.6-4V75a0.85,0.85,0,0,0-.3-0.5,2.19,2.19,0,0,0-.5-0.3,1.27,1.27,0,0,0-.6-0.1,2.2,2.2,0,0,0-.8.1,1.61,1.61,0,0,0-.7.4,1.79,1.79,0,0,0-.5.7c-0.1.3-.2,0.6-0.3,1l-0.5,3.5h-1.3Z" transform="translate(-13.8 -25.2)"/><path class="0bb6a172-5a2e-4f41-abb6-3d70ffc8137f" d="M174.6,76.3a3.36,3.36,0,0,1,.5-1.4,4.81,4.81,0,0,1,.9-1.1,5.67,5.67,0,0,1,1.3-.8,3.65,3.65,0,0,1,1.5-.3,2.9,2.9,0,0,1,1.4.3,2,2,0,0,1,1,.8,2.38,2.38,0,0,1,.6,1.1,3.21,3.21,0,0,1,.1,1.4,3.36,3.36,0,0,1-.5,1.4,4.81,4.81,0,0,1-.9,1.1,5.67,5.67,0,0,1-1.3.8,3.65,3.65,0,0,1-1.5.3,2.9,2.9,0,0,1-1.4-.3,2,2,0,0,1-1-.8,6,6,0,0,1-.6-1.1A2.2,2.2,0,0,1,174.6,76.3Zm1.4,0v1a4.87,4.87,0,0,0,.3.7,1.47,1.47,0,0,0,.6.5,2.39,2.39,0,0,0,.9.2,3.55,3.55,0,0,0,1-.2,3.51,3.51,0,0,0,.8-0.5,3.74,3.74,0,0,0,.6-0.7c0.1-.3.2-0.6,0.3-1v-1a1.49,1.49,0,0,0-.3-0.7,2.65,2.65,0,0,0-.6-0.5,2.39,2.39,0,0,0-.9-0.2,3.55,3.55,0,0,0-1,.2,3.51,3.51,0,0,0-.8.5c-0.2.2-.4,0.5-0.6,0.7A1.93,1.93,0,0,0,176,76.3Z" transform="translate(-13.8 -25.2)"/><path class="0bb6a172-5a2e-4f41-abb6-3d70ffc8137f" d="M184.2,74h-1.5l0.2-1.1h1.5l0.2-1.5a3.37,3.37,0,0,1,.8-2,2.56,2.56,0,0,1,1.9-.7h0.4a0.9,0.9,0,0,1,.5.1l-0.3,1.1c-0.1,0-.2-0.1-0.3-0.1h-0.4a1.27,1.27,0,0,0-.6.1,1.38,1.38,0,0,0-.4.3,0.76,0.76,0,0,0-.2.5,1.27,1.27,0,0,0-.1.6l-0.2,1.6h1.5L187,74h-1.5l-0.8,5.7h-1.3Z" transform="translate(-13.8 -25.2)"/><path class="0bb6a172-5a2e-4f41-abb6-3d70ffc8137f" d="M192.1,69.6h1.4l1.1,8.1h0l3.5-8.1h1.6l1.2,8.1h0l3.4-8.1h1.4l-4.4,10.1H200l-1.3-8.3h0l-3.6,8.3h-1.5Z" transform="translate(-13.8 -25.2)"/><path class="0bb6a172-5a2e-4f41-abb6-3d70ffc8137f" d="M205.6,73.7a6.38,6.38,0,0,1,1.4-.8,4,4,0,0,1,1.5-.3,5.07,5.07,0,0,1,1.3.2,2.18,2.18,0,0,1,.8.5,2.51,2.51,0,0,1,.4.7,1.39,1.39,0,0,1,0,.9l-0.5,3.5c0,0.2-.1.5-0.1,0.7v0.6h-1.1V79.2a0.9,0.9,0,0,1,.1-0.5h0a3.45,3.45,0,0,1-1.2.9,3.19,3.19,0,0,1-1.4.3,2.77,2.77,0,0,1-.9-0.1,1.61,1.61,0,0,1-.7-0.4,2.09,2.09,0,0,1-.4-0.6,2.48,2.48,0,0,1-.1-0.9,3.58,3.58,0,0,1,.4-1.1,2.18,2.18,0,0,1,.9-0.7,5.64,5.64,0,0,1,1.2-.4,7.57,7.57,0,0,1,1.5-.1h0.9V74.8a1.06,1.06,0,0,0-.2-0.5,2.19,2.19,0,0,0-.5-0.3,1.48,1.48,0,0,0-.7-0.1,1.7,1.7,0,0,0-.7.1,2.57,2.57,0,0,0-.5.2,0.76,0.76,0,0,1-.4.2c-0.1.1-.3,0.2-0.4,0.3Zm3.3,2.7a2.77,2.77,0,0,0-.9.1,2.92,2.92,0,0,0-.9.2,1.61,1.61,0,0,0-.7.4,0.91,0.91,0,0,0-.3.7,0.59,0.59,0,0,0,.3.8,2.93,2.93,0,0,0,1,.3,2,2,0,0,0,.9-0.2,1.79,1.79,0,0,0,.7-0.5,2.09,2.09,0,0,0,.4-0.6,1.85,1.85,0,0,0,.2-0.7l0.1-.4h-0.8V76.4Z" transform="translate(-13.8 -25.2)"/><path class="0bb6a172-5a2e-4f41-abb6-3d70ffc8137f" d="M216.6,74h-1.9l-0.4,3.1a1.27,1.27,0,0,1-.1.6,0.83,0.83,0,0,0,0,.5,0.76,0.76,0,0,0,.2.4,0.92,0.92,0,0,0,.6.1h0.5a1.06,1.06,0,0,0,.5-0.2l-0.2,1.2c-0.1,0-.2.1-0.3,0.1a0.37,0.37,0,0,0-.3.1h-0.6a2.68,2.68,0,0,1-1.1-.2,0.82,0.82,0,0,1-.5-0.5,1.7,1.7,0,0,1-.1-0.7,2.2,2.2,0,0,1,.1-0.8l0.5-3.5H212l0.2-1.1h1.5l0.3-1.9h1.3L215,73.1h1.9Z" transform="translate(-13.8 -25.2)"/><path class="0bb6a172-5a2e-4f41-abb6-3d70ffc8137f" d="M218.8,76.8a2,2,0,0,0,.1.8,1.27,1.27,0,0,0,.4.6,1.61,1.61,0,0,0,.7.4,2.2,2.2,0,0,0,.8.1,2,2,0,0,0,1.1-.3,5.5,5.5,0,0,0,.9-0.7l0.9,0.7a4.16,4.16,0,0,1-3.2,1.4,3.19,3.19,0,0,1-1.4-.3,2.54,2.54,0,0,1-1-.8,2.22,2.22,0,0,1-.5-1.1,3.29,3.29,0,0,1,0-1.4,3.36,3.36,0,0,1,.5-1.4,3.13,3.13,0,0,1,.9-1.1,8.34,8.34,0,0,1,1.2-.8,3.53,3.53,0,0,1,1.4-.3,3.34,3.34,0,0,1,1.5.3,2.36,2.36,0,0,1,.9.8,2.1,2.1,0,0,1,.4,1.1,2.85,2.85,0,0,1,0,1.3l-0.1.5h-5.5v0.2Zm4.3-1.1V74.9a0.71,0.71,0,0,0-.3-0.6,1,1,0,0,0-.5-0.4,1.88,1.88,0,0,0-.8-0.2,2.92,2.92,0,0,0-.9.2,1.79,1.79,0,0,0-.7.5,2.65,2.65,0,0,0-.5.6,1.85,1.85,0,0,0-.2.7h3.9Z" transform="translate(-13.8 -25.2)"/><path class="0bb6a172-5a2e-4f41-abb6-3d70ffc8137f" d="M226.4,72.9h1.3l-0.1,1h0a2,2,0,0,1,.9-0.9,2.77,2.77,0,0,1,1.3-.3,1.27,1.27,0,0,1,.6.1l-0.3,1.4c-0.1,0-.2-0.1-0.3-0.1h-0.3a2.46,2.46,0,0,0-1.5.5,2.64,2.64,0,0,0-.7,1.6l-0.5,3.4h-1.3Z" transform="translate(-13.8 -25.2)"/><path class="0bb6a172-5a2e-4f41-abb6-3d70ffc8137f" d="M230.4,79.8a0.6,0.6,0,0,1-.6-0.3,0.84,0.84,0,0,1-.2-0.7,1,1,0,0,1,.4-0.7,0.91,0.91,0,0,1,.7-0.3,0.6,0.6,0,0,1,.6.3,0.84,0.84,0,0,1,.2.7,1,1,0,0,1-.4.7A0.91,0.91,0,0,1,230.4,79.8Z" transform="translate(-13.8 -25.2)"/><path class="0bb6a172-5a2e-4f41-abb6-3d70ffc8137f" d="M233.5,76.3a3.36,3.36,0,0,1,.5-1.4,4.81,4.81,0,0,1,.9-1.1,5.67,5.67,0,0,1,1.3-.8,3.65,3.65,0,0,1,1.5-.3,3.19,3.19,0,0,1,1.4.3,2,2,0,0,1,1,.8,2.38,2.38,0,0,1,.6,1.1,3.21,3.21,0,0,1,.1,1.4,3.36,3.36,0,0,1-.5,1.4,4.81,4.81,0,0,1-.9,1.1,4.11,4.11,0,0,1-1.3.8,3.65,3.65,0,0,1-1.5.3,3.19,3.19,0,0,1-1.4-.3,2,2,0,0,1-1-.8,6,6,0,0,1-.6-1.1A3.21,3.21,0,0,1,233.5,76.3Zm1.4,0v1a4.87,4.87,0,0,0,.3.7,1.47,1.47,0,0,0,.6.5,2.92,2.92,0,0,0,.9.2,3.55,3.55,0,0,0,1-.2,3.51,3.51,0,0,0,.8-0.5,3,3,0,0,0,.5-0.7c0.1-.3.2-0.6,0.3-1v-1a4.87,4.87,0,0,0-.3-0.7,2.65,2.65,0,0,0-.6-0.5,2.92,2.92,0,0,0-.9-0.2,3.55,3.55,0,0,0-1,.2,3.51,3.51,0,0,0-.8.5,3,3,0,0,0-.5.7A1.93,1.93,0,0,0,234.9,76.3Z" transform="translate(-13.8 -25.2)"/><path class="0bb6a172-5a2e-4f41-abb6-3d70ffc8137f" d="M242.8,72.9h1.3l-0.1,1h0a2,2,0,0,1,.9-0.9,2.77,2.77,0,0,1,1.3-.3,1.27,1.27,0,0,1,.6.1l-0.3,1.4c-0.1,0-.2-0.1-0.3-0.1h-0.3a2.46,2.46,0,0,0-1.5.5,2.64,2.64,0,0,0-.7,1.6l-0.5,3.4h-1.3Z" transform="translate(-13.8 -25.2)"/><path class="0bb6a172-5a2e-4f41-abb6-3d70ffc8137f" d="M253.7,79.6a3.36,3.36,0,0,1-.5,1.4,3.13,3.13,0,0,1-.9,1.1,3.29,3.29,0,0,1-1.3.7,4.15,4.15,0,0,1-1.6.3,4.67,4.67,0,0,1-1.7-.3,4.19,4.19,0,0,1-1.4-.9l1-1.1a2.54,2.54,0,0,0,1,.8,2.77,2.77,0,0,0,1.3.3,3.73,3.73,0,0,0,1.2-.2,2.1,2.1,0,0,0,1.3-1.3,2.92,2.92,0,0,0,.2-0.9l0.1-1h0a3.13,3.13,0,0,1-1.1.9,3.19,3.19,0,0,1-1.4.3,2.77,2.77,0,0,1-1.3-.3,3.59,3.59,0,0,1-1-.7,2.38,2.38,0,0,1-.6-1.1,6.15,6.15,0,0,1-.1-1.4,5.73,5.73,0,0,1,.4-1.4,3.13,3.13,0,0,1,.9-1.1,5,5,0,0,1,1.2-.8,3.65,3.65,0,0,1,1.5-.3,2.77,2.77,0,0,1,1.3.3,2.36,2.36,0,0,1,.9.8h0l0.1-1h1.3ZM251,73.9a3.55,3.55,0,0,0-1,.2,3.51,3.51,0,0,0-.8.5,3,3,0,0,0-.5.7c-0.1.3-.2,0.6-0.3,1a2,2,0,0,0,.4,1.7,1.72,1.72,0,0,0,1.5.6A2.35,2.35,0,0,0,252,78a2.49,2.49,0,0,0,.8-1.7v-1a4.87,4.87,0,0,0-.3-0.7,2.65,2.65,0,0,0-.6-0.5A2.92,2.92,0,0,0,251,73.9Z" transform="translate(-13.8 -25.2)"/><path class="becb5bd1-a070-4335-8057-1c8a49ec1704" d="M82.6,35.4h4.1l3.1,23h0.1l10-23h4.5l3.6,23h0.1l9.6-23h4.1L109.4,64.2h-4.1l-3.7-23.5h-0.1L91.1,64.2H87Z" transform="translate(-13.8 -25.2)"/><path class="becb5bd1-a070-4335-8057-1c8a49ec1704" d="M188,53.5l4.7,10.7h4.1l-5.3-11.1a7.87,7.87,0,0,0,6.9-6.4c0.4-3-.6-6.8-6.8-6.8h-8.5l-3.4,24.2H183l1.3-9.1,0.2-1.6,0.4-2.9,0.1-.4,1-7.4h4.3c2.6,0,5.1.6,4.7,3.9,0,0-.2,4.5-7.7,4.5Z" transform="translate(-13.8 -25.2)"/><path class="becb5bd1-a070-4335-8057-1c8a49ec1704" d="M129.2,40h3l7,24.2h-3.8l-1.6-6H122.3l-3.2,6h-3.8Zm3.7,15.4-3-11.1h-0.1l-6.1,11.1h9.2Z" transform="translate(-13.8 -25.2)"/><path class="becb5bd1-a070-4335-8057-1c8a49ec1704" d="M147.1,43.1h-7.8l0.4-3.1h18.9l-0.4,3.1h-7.8l-3,21.1h-3.3Z" transform="translate(-13.8 -25.2)"/><path class="becb5bd1-a070-4335-8057-1c8a49ec1704" d="M162.2,40h15.6l-0.4,3.1H165l-1,7.2h11.5l-0.4,3.1H163.6l-1.1,7.8h13l-0.4,3.1H158.8Z" transform="translate(-13.8 -25.2)"/><path class="fa79a322-460a-44f8-aec0-2a4f0a57582e" d="M205.8,35.4h18.6l-0.5,3.7H209.2L208,47.7h13.7l-0.5,3.7H207.5l-1.3,9.2h15.4l-0.5,3.7H201.8Z" transform="translate(-13.8 -25.2)"/><path class="fa79a322-460a-44f8-aec0-2a4f0a57582e" d="M261.9,39.5l-2.1,15.2c-0.4,3.1.5,7.1,5.2,7.1s6.8-4,7.2-7.1l2.1-15.2h3.4l-2.2,15.7a11,11,0,0,1-11,9.7c-5.4,0-9.1-4-8.2-9.7l2.2-15.7h3.4Z" transform="translate(-13.8 -25.2)"/><path class="fa79a322-460a-44f8-aec0-2a4f0a57582e" d="M283.7,39.5h3.4l-3.5,24.8h-3.4Z" transform="translate(-13.8 -25.2)"/><path class="fa79a322-460a-44f8-aec0-2a4f0a57582e" d="M298.2,42.6h-8l0.4-3.2H310l-0.4,3.2h-8l-3,21.7h-3.4Z" transform="translate(-13.8 -25.2)"/><path class="fa79a322-460a-44f8-aec0-2a4f0a57582e" d="M319.6,53.7l-7.4-14.2h4.3l5.2,10.9,8.5-10.9h4.1L322.9,53.7l-1.5,10.6H318Z" transform="translate(-13.8 -25.2)"/><path class="fa79a322-460a-44f8-aec0-2a4f0a57582e" d="M245.8,61.9h0c-1.7,0-6-.1-8.3-0.3h-0.2a4.17,4.17,0,0,1-1.1-.2h0a7.49,7.49,0,0,1-1.6-.5,8,8,0,0,1-2.9-2.2,8.77,8.77,0,0,1-1.8-3.3,12.9,12.9,0,0,1-.6-4,8.49,8.49,0,0,1,.9-3.8,9.91,9.91,0,0,1,5.2-5.2,10,10,0,0,1,3.8-.8,9.21,9.21,0,0,1,3.8.8,9,9,0,0,1,3,2.1,8.94,8.94,0,0,1,1.9,3.1,12.26,12.26,0,0,1,.6,3.9,10.57,10.57,0,0,1-.8,4,9.88,9.88,0,0,1-2.1,3.2A10.1,10.1,0,0,1,244,60c-0.1.1-.1,0.3,0.1,0.3h4.2a11.33,11.33,0,0,0,2.2-2.7,13.43,13.43,0,0,0,1.2-3,11.85,11.85,0,0,0,.5-3.2,12.48,12.48,0,0,0-3.6-9.3,11.28,11.28,0,0,0-4.1-2.7,12.55,12.55,0,0,0-5.1-1,13.17,13.17,0,0,0-5.3,1,15.66,15.66,0,0,0-4.4,2.8,14,14,0,0,0-3,4.2,15.22,15.22,0,0,0-1.2,5.3,11.63,11.63,0,0,0,.9,5.3,12.87,12.87,0,0,0,7,7,12.69,12.69,0,0,0,5.2,1h15l0.1-3.1h-7.9Z" transform="translate(-13.8 -25.2)"/><path class="0bb6a172-5a2e-4f41-abb6-3d70ffc8137f" d="M336.4,43a0.42,0.42,0,0,0,.4.3,0.9,0.9,0,0,0,.5.1h0.3c0.1,0,.2-0.1.3-0.1l0.2-.2a0.37,0.37,0,0,0,.1-0.3,0.71,0.71,0,0,0-.6-0.6,1.06,1.06,0,0,1-.5-0.2c-0.2-.1-0.3-0.1-0.5-0.2a0.78,0.78,0,0,1-.4-0.4,1.45,1.45,0,0,1-.2-0.7,0.6,0.6,0,0,1,.1-0.4,1,1,0,0,1,.3-0.4c0.1-.1.3-0.2,0.4-0.3a1.48,1.48,0,0,1,.7-0.1,1.7,1.7,0,0,1,.7.1,2.09,2.09,0,0,1,.6.4l-0.5.4-0.3-.3a0.6,0.6,0,0,0-.4-0.1,0.48,0.48,0,0,0-.4.1,0.53,0.53,0,0,0-.3.2,0.2,0.2,0,0,0-.1.2v0.2a0.71,0.71,0,0,0,.6.6c0.2,0.1.3,0.1,0.5,0.2a1.06,1.06,0,0,1,.5.2,1.38,1.38,0,0,1,.4.3,0.85,0.85,0,0,1,.2.6,1.27,1.27,0,0,1-.1.6,1.38,1.38,0,0,1-.3.4,2.19,2.19,0,0,1-.5.3,1.27,1.27,0,0,1-.6.1,2.2,2.2,0,0,1-.8-0.1,2.09,2.09,0,0,1-.6-0.4Z" transform="translate(-13.8 -25.2)"/><path class="0bb6a172-5a2e-4f41-abb6-3d70ffc8137f" d="M339.5,39.7h0.9l1.3,3.2h0l1.3-3.2h0.9v4.2h-0.6V40.4h0l-1.4,3.5h-0.4l-1.4-3.5h0v3.5h-0.6V39.7h0Z" transform="translate(-13.8 -25.2)"/></svg>